  0
SECTION
  2
HEADER
  9
$ACADVER
  1
AC1009
  9
$EXTMIN
 10
0.0
 20
0.0
 30
0.0
  9
$EXTMAX
 10
1000.0
 20
1000.0
 30
0.0
  9
$FILLMODE
 70
 0
  9
$SPLFRAME
 70
 1
  0
ENDSEC
  0
SECTION
  2
TABLES
  0
TABLE
  2
LAYER
 70
1
  0
LAYER
  2
0
 70
     0
 62
     7
  6
CONTINUOUS
  0
ENDTAB
  0
ENDSEC
  0
SECTION
  2
ENTITIES
  0
LINE
  8
0
 62
     0
 10
426.004
 20
124.504
 30
0.0
 11
426.24
 21
124.495
 31
0.0
  0
LINE
  8
0
 62
     0
 10
426.24
 20
124.495
 30
0.0
 11
426.473
 21
124.468
 31
0.0
  0
LINE
  8
0
 62
     0
 10
426.473
 20
124.468
 30
0.0
 11
426.706
 21
124.423
 31
0.0
  0
LINE
  8
0
 62
     0
 10
426.706
 20
124.423
 30
0.0
 11
426.932
 21
124.358
 31
0.0
  0
LINE
  8
0
 62
     0
 10
426.932
 20
124.358
 30
0.0
 11
427.154
 21
124.277
 31
0.0
  0
LINE
  8
0
 62
     0
 10
427.154
 20
124.277
 30
0.0
 11
427.366
 21
124.178
 31
0.0
  0
LINE
  8
0
 62
     0
 10
427.366
 20
124.178
 30
0.0
 11
427.574
 21
124.062
 31
0.0
  0
LINE
  8
0
 62
     0
 10
427.574
 20
124.062
 30
0.0
 11
427.768
 21
123.933
 31
0.0
  0
LINE
  8
0
 62
     0
 10
427.768
 20
123.933
 30
0.0
 11
427.951
 21
123.787
 31
0.0
  0
LINE
  8
0
 62
     0
 10
427.951
 20
123.787
 30
0.0
 11
428.128
 21
123.627
 31
0.0
  0
LINE
  8
0
 62
     0
 10
428.128
 20
123.627
 30
0.0
 11
428.286
 21
123.453
 31
0.0
  0
LINE
  8
0
 62
     0
 10
428.286
 20
123.453
 30
0.0
 11
428.431
 21
123.268
 31
0.0
  0
LINE
  8
0
 62
     0
 10
428.431
 20
123.268
 30
0.0
 11
428.561
 21
123.073
 31
0.0
  0
LINE
  8
0
 62
     0
 10
428.561
 20
123.073
 30
0.0
 11
428.678
 21
122.866
 31
0.0
  0
LINE
  8
0
 62
     0
 10
428.678
 20
122.866
 30
0.0
 11
428.777
 21
122.654
 31
0.0
  0
LINE
  8
0
 62
     0
 10
428.777
 20
122.654
 30
0.0
 11
428.858
 21
122.432
 31
0.0
  0
LINE
  8
0
 62
     0
 10
428.858
 20
122.432
 30
0.0
 11
428.921
 21
122.206
 31
0.0
  0
LINE
  8
0
 62
     0
 10
428.921
 20
122.206
 30
0.0
 11
428.967
 21
121.974
 31
0.0
  0
LINE
  8
0
 62
     0
 10
428.967
 20
121.974
 30
0.0
 11
428.995
 21
121.74
 31
0.0
  0
LINE
  8
0
 62
     0
 10
428.995
 20
121.74
 30
0.0
 11
429.006
 21
121.504
 31
0.0
  0
LINE
  8
0
 62
     0
 10
429.006
 20
121.504
 30
0.0
 11
429.006
 21
3.67799
 31
0.0
  0
LINE
  8
0
 62
     0
 10
429.006
 20
3.67799
 30
0.0
 11
428.995
 21
3.44372
 31
0.0
  0
LINE
  8
0
 62
     0
 10
428.995
 20
3.44372
 30
0.0
 11
428.967
 21
3.20945
 31
0.0
  0
LINE
  8
0
 62
     0
 10
428.967
 20
3.20945
 30
0.0
 11
428.921
 21
2.97794
 31
0.0
  0
LINE
  8
0
 62
     0
 10
428.921
 20
2.97794
 30
0.0
 11
428.858
 21
2.75194
 31
0.0
  0
LINE
  8
0
 62
     0
 10
428.858
 20
2.75194
 30
0.0
 11
428.777
 21
2.53008
 31
0.0
  0
LINE
  8
0
 62
     0
 10
428.777
 20
2.53008
 30
0.0
 11
428.678
 21
2.31786
 31
0.0
  0
LINE
  8
0
 62
     0
 10
428.678
 20
2.31786
 30
0.0
 11
428.561
 21
2.11116
 31
0.0
  0
LINE
  8
0
 62
     0
 10
428.561
 20
2.11116
 30
0.0
 11
428.431
 21
1.91547
 31
0.0
  0
LINE
  8
0
 62
     0
 10
428.431
 20
1.91547
 30
0.0
 11
428.286
 21
1.73082
 31
0.0
  0
LINE
  8
0
 62
     0
 10
428.286
 20
1.73082
 30
0.0
 11
428.128
 21
1.55718
 31
0.0
  0
LINE
  8
0
 62
     0
 10
428.128
 20
1.55718
 30
0.0
 11
427.951
 21
1.39733
 31
0.0
  0
LINE
  8
0
 62
     0
 10
427.951
 20
1.39733
 30
0.0
 11
427.768
 21
1.25264
 31
0.0
  0
LINE
  8
0
 62
     0
 10
427.768
 20
1.25264
 30
0.0
 11
427.574
 21
1.12172
 31
0.0
  0
LINE
  8
0
 62
     0
 10
427.574
 20
1.12172
 30
0.0
 11
427.366
 21
1.00597
 31
0.0
  0
LINE
  8
0
 62
     0
 10
427.366
 20
1.00597
 30
0.0
 11
427.154
 21
0.906748
 31
0.0
  0
LINE
  8
0
 62
     0
 10
427.154
 20
0.906748
 30
0.0
 11
426.932
 21
0.825444
 31
0.0
  0
LINE
  8
0
 62
     0
 10
426.932
 20
0.825444
 30
0.0
 11
426.706
 21
0.762056
 31
0.0
  0
LINE
  8
0
 62
     0
 10
426.706
 20
0.762056
 30
0.0
 11
426.473
 21
0.71658
 31
0.0
  0
LINE
  8
0
 62
     0
 10
426.473
 20
0.71658
 30
0.0
 11
426.24
 21
0.689021
 31
0.0
  0
LINE
  8
0
 62
     0
 10
426.24
 20
0.689021
 30
0.0
 11
426.004
 21
0.677997
 31
0.0
  0
LINE
  8
0
 62
     0
 10
426.004
 20
0.677997
 30
0.0
 11
3.37895
 21
0.677997
 31
0.0
  0
LINE
  8
0
 62
     0
 10
3.37895
 20
0.677997
 30
0.0
 11
3.14331
 21
0.689021
 31
0.0
  0
LINE
  8
0
 62
     0
 10
3.14331
 20
0.689021
 30
0.0
 11
2.90904
 21
0.71658
 31
0.0
  0
LINE
  8
0
 62
     0
 10
2.90904
 20
0.71658
 30
0.0
 11
2.67753
 21
0.762056
 31
0.0
  0
LINE
  8
0
 62
     0
 10
2.67753
 20
0.762056
 30
0.0
 11
2.45153
 21
0.825444
 31
0.0
  0
LINE
  8
0
 62
     0
 10
2.45153
 20
0.825444
 30
0.0
 11
2.22966
 21
0.906748
 31
0.0
  0
LINE
  8
0
 62
     0
 10
2.22966
 20
0.906748
 30
0.0
 11
2.01745
 21
1.00597
 31
0.0
  0
LINE
  8
0
 62
     0
 10
2.01745
 20
1.00597
 30
0.0
 11
1.81074
 21
1.12172
 31
0.0
  0
LINE
  8
0
 62
     0
 10
1.81074
 20
1.12172
 30
0.0
 11
1.61506
 21
1.25264
 31
0.0
  0
LINE
  8
0
 62
     0
 10
1.61506
 20
1.25264
 30
0.0
 11
1.4304
 21
1.39733
 31
0.0
  0
LINE
  8
0
 62
     0
 10
1.4304
 20
1.39733
 30
0.0
 11
1.25677
 21
1.55718
 31
0.0
  0
LINE
  8
0
 62
     0
 10
1.25677
 20
1.55718
 30
0.0
 11
1.09692
 21
1.73082
 31
0.0
  0
LINE
  8
0
 62
     0
 10
1.09692
 20
1.73082
 30
0.0
 11
0.950846
 21
1.91547
 31
0.0
  0
LINE
  8
0
 62
     0
 10
0.950846
 20
1.91547
 30
0.0
 11
0.821313
 21
2.11116
 31
0.0
  0
LINE
  8
0
 62
     0
 10
0.821313
 20
2.11116
 30
0.0
 11
0.705556
 21
2.31786
 31
0.0
  0
LINE
  8
0
 62
     0
 10
0.705556
 20
2.31786
 30
0.0
 11
0.606337
 21
2.53008
 31
0.0
  0
LINE
  8
0
 62
     0
 10
0.606337
 20
2.53008
 30
0.0
 11
0.525032
 21
2.75194
 31
0.0
  0
LINE
  8
0
 62
     0
 10
0.525032
 20
2.75194
 30
0.0
 11
0.460266
 21
2.97794
 31
0.0
  0
LINE
  8
0
 62
     0
 10
0.460266
 20
2.97794
 30
0.0
 11
0.414789
 21
3.20945
 31
0.0
  0
LINE
  8
0
 62
     0
 10
0.414789
 20
3.20945
 30
0.0
 11
0.388606
 21
3.44372
 31
0.0
  0
LINE
  8
0
 62
     0
 10
0.388606
 20
3.44372
 30
0.0
 11
0.377582
 21
3.67937
 31
0.0
  0
LINE
  8
0
 62
     0
 10
0.377582
 20
3.67937
 30
0.0
 11
0.378961
 21
121.504
 31
0.0
  0
LINE
  8
0
 62
     0
 10
0.378961
 20
121.504
 30
0.0
 11
0.388606
 21
121.74
 31
0.0
  0
LINE
  8
0
 62
     0
 10
0.388606
 20
121.74
 30
0.0
 11
0.414789
 21
121.974
 31
0.0
  0
LINE
  8
0
 62
     0
 10
0.414789
 20
121.974
 30
0.0
 11
0.460266
 21
122.206
 31
0.0
  0
LINE
  8
0
 62
     0
 10
0.460266
 20
122.206
 30
0.0
 11
0.525032
 21
122.432
 31
0.0
  0
LINE
  8
0
 62
     0
 10
0.525032
 20
122.432
 30
0.0
 11
0.606337
 21
122.654
 31
0.0
  0
LINE
  8
0
 62
     0
 10
0.606337
 20
122.654
 30
0.0
 11
0.705556
 21
122.866
 31
0.0
  0
LINE
  8
0
 62
     0
 10
0.705556
 20
122.866
 30
0.0
 11
0.821313
 21
123.073
 31
0.0
  0
LINE
  8
0
 62
     0
 10
0.821313
 20
123.073
 30
0.0
 11
0.950846
 21
123.268
 31
0.0
  0
LINE
  8
0
 62
     0
 10
0.950846
 20
123.268
 30
0.0
 11
1.09692
 21
123.453
 31
0.0
  0
LINE
  8
0
 62
     0
 10
1.09692
 20
123.453
 30
0.0
 11
1.25677
 21
123.627
 31
0.0
  0
LINE
  8
0
 62
     0
 10
1.25677
 20
123.627
 30
0.0
 11
1.4304
 21
123.787
 31
0.0
  0
LINE
  8
0
 62
     0
 10
1.4304
 20
123.787
 30
0.0
 11
1.61506
 21
123.933
 31
0.0
  0
LINE
  8
0
 62
     0
 10
1.61506
 20
123.933
 30
0.0
 11
1.81074
 21
124.062
 31
0.0
  0
LINE
  8
0
 62
     0
 10
1.81074
 20
124.062
 30
0.0
 11
2.01745
 21
124.178
 31
0.0
  0
LINE
  8
0
 62
     0
 10
2.01745
 20
124.178
 30
0.0
 11
2.22966
 21
124.277
 31
0.0
  0
LINE
  8
0
 62
     0
 10
2.22966
 20
124.277
 30
0.0
 11
2.45153
 21
124.358
 31
0.0
  0
LINE
  8
0
 62
     0
 10
2.45153
 20
124.358
 30
0.0
 11
2.67753
 21
124.423
 31
0.0
  0
LINE
  8
0
 62
     0
 10
2.67753
 20
124.423
 30
0.0
 11
2.90904
 21
124.468
 31
0.0
  0
LINE
  8
0
 62
     0
 10
2.90904
 20
124.468
 30
0.0
 11
3.14331
 21
124.495
 31
0.0
  0
LINE
  8
0
 62
     0
 10
3.14331
 20
124.495
 30
0.0
 11
3.37895
 21
124.506
 31
0.0
  0
LINE
  8
0
 62
     0
 10
3.37895
 20
124.506
 30
0.0
 11
426.004
 21
124.504
 31
0.0
  0
LINE
  8
0
 62
     0
 10
364.853
 20
17.2048
 30
0.0
 11
364.853
 21
12.5043
 31
0.0
  0
LINE
  8
0
 62
     0
 10
364.853
 20
12.5043
 30
0.0
 11
363.329
 21
12.5043
 31
0.0
  0
LINE
  8
0
 62
     0
 10
363.329
 20
12.5043
 30
0.0
 11
363.329
 21
15.7345
 31
0.0
  0
LINE
  8
0
 62
     0
 10
363.329
 20
15.7345
 30
0.0
 11
361.604
 21
15.7345
 31
0.0
  0
LINE
  8
0
 62
     0
 10
361.604
 20
15.7345
 30
0.0
 11
361.604
 21
16.655
 31
0.0
  0
LINE
  8
0
 62
     0
 10
361.604
 20
16.655
 30
0.0
 11
358.302
 21
16.655
 31
0.0
  0
LINE
  8
0
 62
     0
 10
358.302
 20
16.655
 30
0.0
 11
358.302
 21
15.7345
 31
0.0
  0
LINE
  8
0
 62
     0
 10
358.302
 20
15.7345
 30
0.0
 11
356.577
 21
15.7345
 31
0.0
  0
LINE
  8
0
 62
     0
 10
356.577
 20
15.7345
 30
0.0
 11
356.577
 21
12.5043
 31
0.0
  0
LINE
  8
0
 62
     0
 10
356.577
 20
12.5043
 30
0.0
 11
355.755
 21
12.5043
 31
0.0
  0
LINE
  8
0
 62
     0
 10
355.755
 20
12.5043
 30
0.0
 11
355.755
 21
9.70414
 31
0.0
  0
LINE
  8
0
 62
     0
 10
355.755
 20
9.70414
 30
0.0
 11
356.577
 21
9.70414
 31
0.0
  0
LINE
  8
0
 62
     0
 10
356.577
 20
9.70414
 30
0.0
 11
356.577
 21
3.43407
 31
0.0
  0
LINE
  8
0
 62
     0
 10
356.577
 20
3.43407
 30
0.0
 11
358.302
 21
3.43407
 31
0.0
  0
LINE
  8
0
 62
     0
 10
358.302
 20
3.43407
 30
0.0
 11
358.302
 21
2.45429
 31
0.0
  0
LINE
  8
0
 62
     0
 10
358.302
 20
2.45429
 30
0.0
 11
361.604
 21
2.45429
 31
0.0
  0
LINE
  8
0
 62
     0
 10
361.604
 20
2.45429
 30
0.0
 11
361.604
 21
3.43407
 31
0.0
  0
LINE
  8
0
 62
     0
 10
361.604
 20
3.43407
 30
0.0
 11
363.329
 21
3.43407
 31
0.0
  0
LINE
  8
0
 62
     0
 10
363.329
 20
3.43407
 30
0.0
 11
363.329
 21
7.90444
 31
0.0
  0
LINE
  8
0
 62
     0
 10
363.329
 20
7.90444
 30
0.0
 11
364.853
 21
7.90444
 31
0.0
  0
LINE
  8
0
 62
     0
 10
364.853
 20
7.90444
 30
0.0
 11
364.853
 21
3.20394
 31
0.0
  0
LINE
  8
0
 62
     0
 10
364.853
 20
3.20394
 30
0.0
 11
378.855
 21
3.20394
 31
0.0
  0
LINE
  8
0
 62
     0
 10
378.855
 20
3.20394
 30
0.0
 11
378.855
 21
7.90444
 31
0.0
  0
LINE
  8
0
 62
     0
 10
378.855
 20
7.90444
 30
0.0
 11
380.379
 21
7.90444
 31
0.0
  0
LINE
  8
0
 62
     0
 10
380.379
 20
7.90444
 30
0.0
 11
380.379
 21
3.43407
 31
0.0
  0
LINE
  8
0
 62
     0
 10
380.379
 20
3.43407
 30
0.0
 11
382.104
 21
3.43407
 31
0.0
  0
LINE
  8
0
 62
     0
 10
382.104
 20
3.43407
 30
0.0
 11
382.104
 21
2.45429
 31
0.0
  0
LINE
  8
0
 62
     0
 10
382.104
 20
2.45429
 30
0.0
 11
385.403
 21
2.45429
 31
0.0
  0
LINE
  8
0
 62
     0
 10
385.403
 20
2.45429
 30
0.0
 11
385.403
 21
3.43407
 31
0.0
  0
LINE
  8
0
 62
     0
 10
385.403
 20
3.43407
 30
0.0
 11
387.131
 21
3.43407
 31
0.0
  0
LINE
  8
0
 62
     0
 10
387.131
 20
3.43407
 30
0.0
 11
387.131
 21
9.70414
 31
0.0
  0
LINE
  8
0
 62
     0
 10
387.131
 20
9.70414
 30
0.0
 11
387.953
 21
9.70414
 31
0.0
  0
LINE
  8
0
 62
     0
 10
387.953
 20
9.70414
 30
0.0
 11
387.953
 21
12.5043
 31
0.0
  0
LINE
  8
0
 62
     0
 10
387.953
 20
12.5043
 30
0.0
 11
387.131
 21
12.5043
 31
0.0
  0
LINE
  8
0
 62
     0
 10
387.131
 20
12.5043
 30
0.0
 11
387.131
 21
15.7345
 31
0.0
  0
LINE
  8
0
 62
     0
 10
387.131
 20
15.7345
 30
0.0
 11
385.403
 21
15.7345
 31
0.0
  0
LINE
  8
0
 62
     0
 10
385.403
 20
15.7345
 30
0.0
 11
385.403
 21
16.655
 31
0.0
  0
LINE
  8
0
 62
     0
 10
385.403
 20
16.655
 30
0.0
 11
382.104
 21
16.655
 31
0.0
  0
LINE
  8
0
 62
     0
 10
382.104
 20
16.655
 30
0.0
 11
382.104
 21
15.7345
 31
0.0
  0
LINE
  8
0
 62
     0
 10
382.104
 20
15.7345
 30
0.0
 11
380.379
 21
15.7345
 31
0.0
  0
LINE
  8
0
 62
     0
 10
380.379
 20
15.7345
 30
0.0
 11
380.379
 21
12.5043
 31
0.0
  0
LINE
  8
0
 62
     0
 10
380.379
 20
12.5043
 30
0.0
 11
378.855
 21
12.5043
 31
0.0
  0
LINE
  8
0
 62
     0
 10
378.855
 20
12.5043
 30
0.0
 11
378.855
 21
17.2048
 31
0.0
  0
LINE
  8
0
 62
     0
 10
378.855
 20
17.2048
 30
0.0
 11
364.853
 21
17.2048
 31
0.0
  0
LINE
  8
0
 62
     0
 10
124.346
 20
17.2048
 30
0.0
 11
124.346
 21
12.5043
 31
0.0
  0
LINE
  8
0
 62
     0
 10
124.346
 20
12.5043
 30
0.0
 11
84.7217
 21
12.5043
 31
0.0
  0
LINE
  8
0
 62
     0
 10
84.7217
 20
12.5043
 30
0.0
 11
84.7217
 21
15.7345
 31
0.0
  0
LINE
  8
0
 62
     0
 10
84.7217
 20
15.7345
 30
0.0
 11
82.9966
 21
15.7345
 31
0.0
  0
LINE
  8
0
 62
     0
 10
82.9966
 20
15.7345
 30
0.0
 11
82.9966
 21
16.655
 31
0.0
  0
LINE
  8
0
 62
     0
 10
82.9966
 20
16.655
 30
0.0
 11
79.6974
 21
16.655
 31
0.0
  0
LINE
  8
0
 62
     0
 10
79.6974
 20
16.655
 30
0.0
 11
79.6974
 21
15.7345
 31
0.0
  0
LINE
  8
0
 62
     0
 10
79.6974
 20
15.7345
 30
0.0
 11
77.972
 21
15.7345
 31
0.0
  0
LINE
  8
0
 62
     0
 10
77.972
 20
15.7345
 30
0.0
 11
77.972
 21
12.5043
 31
0.0
  0
LINE
  8
0
 62
     0
 10
77.972
 20
12.5043
 30
0.0
 11
77.1469
 21
12.5043
 31
0.0
  0
LINE
  8
0
 62
     0
 10
77.1469
 20
12.5043
 30
0.0
 11
77.1469
 21
9.70414
 31
0.0
  0
LINE
  8
0
 62
     0
 10
77.1469
 20
9.70414
 30
0.0
 11
77.972
 21
9.70414
 31
0.0
  0
LINE
  8
0
 62
     0
 10
77.972
 20
9.70414
 30
0.0
 11
77.972
 21
3.43407
 31
0.0
  0
LINE
  8
0
 62
     0
 10
77.972
 20
3.43407
 30
0.0
 11
79.6974
 21
3.43407
 31
0.0
  0
LINE
  8
0
 62
     0
 10
79.6974
 20
3.43407
 30
0.0
 11
79.6974
 21
2.45429
 31
0.0
  0
LINE
  8
0
 62
     0
 10
79.6974
 20
2.45429
 30
0.0
 11
82.9966
 21
2.45429
 31
0.0
  0
LINE
  8
0
 62
     0
 10
82.9966
 20
2.45429
 30
0.0
 11
82.9966
 21
3.43407
 31
0.0
  0
LINE
  8
0
 62
     0
 10
82.9966
 20
3.43407
 30
0.0
 11
84.7217
 21
3.43407
 31
0.0
  0
LINE
  8
0
 62
     0
 10
84.7217
 20
3.43407
 30
0.0
 11
84.7217
 21
7.90444
 31
0.0
  0
LINE
  8
0
 62
     0
 10
84.7217
 20
7.90444
 30
0.0
 11
124.346
 21
7.90444
 31
0.0
  0
LINE
  8
0
 62
     0
 10
124.346
 20
7.90444
 30
0.0
 11
124.346
 21
3.20394
 31
0.0
  0
LINE
  8
0
 62
     0
 10
124.346
 20
3.20394
 30
0.0
 11
138.347
 21
3.20394
 31
0.0
  0
LINE
  8
0
 62
     0
 10
138.347
 20
3.20394
 30
0.0
 11
138.347
 21
7.90444
 31
0.0
  0
LINE
  8
0
 62
     0
 10
138.347
 20
7.90444
 30
0.0
 11
177.972
 21
7.90444
 31
0.0
  0
LINE
  8
0
 62
     0
 10
177.972
 20
7.90444
 30
0.0
 11
177.972
 21
3.43407
 31
0.0
  0
LINE
  8
0
 62
     0
 10
177.972
 20
3.43407
 30
0.0
 11
179.698
 21
3.43407
 31
0.0
  0
LINE
  8
0
 62
     0
 10
179.698
 20
3.43407
 30
0.0
 11
179.698
 21
2.45429
 31
0.0
  0
LINE
  8
0
 62
     0
 10
179.698
 20
2.45429
 30
0.0
 11
182.996
 21
2.45429
 31
0.0
  0
LINE
  8
0
 62
     0
 10
182.996
 20
2.45429
 30
0.0
 11
182.996
 21
3.43407
 31
0.0
  0
LINE
  8
0
 62
     0
 10
182.996
 20
3.43407
 30
0.0
 11
184.722
 21
3.43407
 31
0.0
  0
LINE
  8
0
 62
     0
 10
184.722
 20
3.43407
 30
0.0
 11
184.722
 21
9.70414
 31
0.0
  0
LINE
  8
0
 62
     0
 10
184.722
 20
9.70414
 30
0.0
 11
185.547
 21
9.70414
 31
0.0
  0
LINE
  8
0
 62
     0
 10
185.547
 20
9.70414
 30
0.0
 11
185.547
 21
12.5043
 31
0.0
  0
LINE
  8
0
 62
     0
 10
185.547
 20
12.5043
 30
0.0
 11
184.722
 21
12.5043
 31
0.0
  0
LINE
  8
0
 62
     0
 10
184.722
 20
12.5043
 30
0.0
 11
184.722
 21
15.7345
 31
0.0
  0
LINE
  8
0
 62
     0
 10
184.722
 20
15.7345
 30
0.0
 11
182.996
 21
15.7345
 31
0.0
  0
LINE
  8
0
 62
     0
 10
182.996
 20
15.7345
 30
0.0
 11
182.996
 21
16.655
 31
0.0
  0
LINE
  8
0
 62
     0
 10
182.996
 20
16.655
 30
0.0
 11
179.698
 21
16.655
 31
0.0
  0
LINE
  8
0
 62
     0
 10
179.698
 20
16.655
 30
0.0
 11
179.698
 21
15.7345
 31
0.0
  0
LINE
  8
0
 62
     0
 10
179.698
 20
15.7345
 30
0.0
 11
177.972
 21
15.7345
 31
0.0
  0
LINE
  8
0
 62
     0
 10
177.972
 20
15.7345
 30
0.0
 11
177.972
 21
12.5043
 31
0.0
  0
LINE
  8
0
 62
     0
 10
177.972
 20
12.5043
 30
0.0
 11
138.347
 21
12.5043
 31
0.0
  0
LINE
  8
0
 62
     0
 10
138.347
 20
12.5043
 30
0.0
 11
138.347
 21
17.2048
 31
0.0
  0
LINE
  8
0
 62
     0
 10
138.347
 20
17.2048
 30
0.0
 11
124.346
 21
17.2048
 31
0.0
  0
LINE
  8
0
 62
     0
 10
393.428
 20
17.2048
 30
0.0
 11
407.43
 21
17.2048
 31
0.0
  0
LINE
  8
0
 62
     0
 10
407.43
 20
17.2048
 30
0.0
 11
407.43
 21
3.20394
 31
0.0
  0
LINE
  8
0
 62
     0
 10
407.43
 20
3.20394
 30
0.0
 11
393.428
 21
3.20394
 31
0.0
  0
LINE
  8
0
 62
     0
 10
393.428
 20
3.20394
 30
0.0
 11
393.428
 21
17.2048
 31
0.0
  0
LINE
  8
0
 62
     0
 10
331.516
 20
17.2048
 30
0.0
 11
345.515
 21
17.2048
 31
0.0
  0
LINE
  8
0
 62
     0
 10
345.515
 20
17.2048
 30
0.0
 11
345.515
 21
3.20394
 31
0.0
  0
LINE
  8
0
 62
     0
 10
345.515
 20
3.20394
 30
0.0
 11
331.516
 21
3.20394
 31
0.0
  0
LINE
  8
0
 62
     0
 10
331.516
 20
3.20394
 30
0.0
 11
331.516
 21
17.2048
 31
0.0
  0
LINE
  8
0
 62
     0
 10
312.466
 20
17.2048
 30
0.0
 11
326.465
 21
17.2048
 31
0.0
  0
LINE
  8
0
 62
     0
 10
326.465
 20
17.2048
 30
0.0
 11
326.465
 21
3.20394
 31
0.0
  0
LINE
  8
0
 62
     0
 10
326.465
 20
3.20394
 30
0.0
 11
312.466
 21
3.20394
 31
0.0
  0
LINE
  8
0
 62
     0
 10
312.466
 20
3.20394
 30
0.0
 11
312.466
 21
17.2048
 31
0.0
  0
LINE
  8
0
 62
     0
 10
293.416
 20
17.2048
 30
0.0
 11
307.415
 21
17.2048
 31
0.0
  0
LINE
  8
0
 62
     0
 10
307.415
 20
17.2048
 30
0.0
 11
307.415
 21
3.20394
 31
0.0
  0
LINE
  8
0
 62
     0
 10
307.415
 20
3.20394
 30
0.0
 11
293.416
 21
3.20394
 31
0.0
  0
LINE
  8
0
 62
     0
 10
293.416
 20
3.20394
 30
0.0
 11
293.416
 21
17.2048
 31
0.0
  0
LINE
  8
0
 62
     0
 10
267.222
 20
17.2048
 30
0.0
 11
281.222
 21
17.2048
 31
0.0
  0
LINE
  8
0
 62
     0
 10
281.222
 20
17.2048
 30
0.0
 11
281.222
 21
3.20394
 31
0.0
  0
LINE
  8
0
 62
     0
 10
281.222
 20
3.20394
 30
0.0
 11
267.222
 21
3.20394
 31
0.0
  0
LINE
  8
0
 62
     0
 10
267.222
 20
3.20394
 30
0.0
 11
267.222
 21
17.2048
 31
0.0
  0
LINE
  8
0
 62
     0
 10
243.41
 20
17.2048
 30
0.0
 11
257.409
 21
17.2048
 31
0.0
  0
LINE
  8
0
 62
     0
 10
257.409
 20
17.2048
 30
0.0
 11
257.409
 21
3.20394
 31
0.0
  0
LINE
  8
0
 62
     0
 10
257.409
 20
3.20394
 30
0.0
 11
243.41
 21
3.20394
 31
0.0
  0
LINE
  8
0
 62
     0
 10
243.41
 20
3.20394
 30
0.0
 11
243.41
 21
17.2048
 31
0.0
  0
LINE
  8
0
 62
     0
 10
219.597
 20
17.2048
 30
0.0
 11
233.597
 21
17.2048
 31
0.0
  0
LINE
  8
0
 62
     0
 10
233.597
 20
17.2048
 30
0.0
 11
233.597
 21
3.20394
 31
0.0
  0
LINE
  8
0
 62
     0
 10
233.597
 20
3.20394
 30
0.0
 11
219.597
 21
3.20394
 31
0.0
  0
LINE
  8
0
 62
     0
 10
219.597
 20
3.20394
 30
0.0
 11
219.597
 21
17.2048
 31
0.0
  0
LINE
  8
0
 62
     0
 10
195.785
 20
17.2048
 30
0.0
 11
209.784
 21
17.2048
 31
0.0
  0
LINE
  8
0
 62
     0
 10
209.784
 20
17.2048
 30
0.0
 11
209.784
 21
3.20394
 31
0.0
  0
LINE
  8
0
 62
     0
 10
209.784
 20
3.20394
 30
0.0
 11
195.785
 21
3.20394
 31
0.0
  0
LINE
  8
0
 62
     0
 10
195.785
 20
3.20394
 30
0.0
 11
195.785
 21
17.2048
 31
0.0
  0
LINE
  8
0
 62
     0
 10
52.9096
 20
17.2048
 30
0.0
 11
66.9092
 21
17.2048
 31
0.0
  0
LINE
  8
0
 62
     0
 10
66.9092
 20
17.2048
 30
0.0
 11
66.9092
 21
3.20394
 31
0.0
  0
LINE
  8
0
 62
     0
 10
66.9092
 20
3.20394
 30
0.0
 11
52.9096
 21
3.20394
 31
0.0
  0
LINE
  8
0
 62
     0
 10
52.9096
 20
3.20394
 30
0.0
 11
52.9096
 21
17.2048
 31
0.0
  0
LINE
  8
0
 62
     0
 10
29.0973
 20
17.2048
 30
0.0
 11
43.0967
 21
17.2048
 31
0.0
  0
LINE
  8
0
 62
     0
 10
43.0967
 20
17.2048
 30
0.0
 11
43.0967
 21
3.20394
 31
0.0
  0
LINE
  8
0
 62
     0
 10
43.0967
 20
3.20394
 30
0.0
 11
29.0973
 21
3.20394
 31
0.0
  0
LINE
  8
0
 62
     0
 10
29.0973
 20
3.20394
 30
0.0
 11
29.0973
 21
17.2048
 31
0.0
  0
LINE
  8
0
 62
     0
 10
5.28479
 20
17.2048
 30
0.0
 11
19.2843
 21
17.2048
 31
0.0
  0
LINE
  8
0
 62
     0
 10
19.2843
 20
17.2048
 30
0.0
 11
19.2843
 21
3.20394
 31
0.0
  0
LINE
  8
0
 62
     0
 10
19.2843
 20
3.20394
 30
0.0
 11
5.28479
 21
3.20394
 31
0.0
  0
LINE
  8
0
 62
     0
 10
5.28479
 20
3.20394
 30
0.0
 11
5.28479
 21
17.2048
 31
0.0
  0
LINE
  8
0
 62
     0
 10
418.98
 20
35.8292
 30
0.0
 11
418.98
 21
35.0049
 31
0.0
  0
LINE
  8
0
 62
     0
 10
418.98
 20
35.0049
 30
0.0
 11
412.708
 21
35.0049
 31
0.0
  0
LINE
  8
0
 62
     0
 10
412.708
 20
35.0049
 30
0.0
 11
412.708
 21
33.2796
 31
0.0
  0
LINE
  8
0
 62
     0
 10
412.708
 20
33.2796
 30
0.0
 11
411.73
 21
33.2796
 31
0.0
  0
LINE
  8
0
 62
     0
 10
411.73
 20
33.2796
 30
0.0
 11
411.73
 21
29.9792
 31
0.0
  0
LINE
  8
0
 62
     0
 10
411.73
 20
29.9792
 30
0.0
 11
412.708
 21
29.9792
 31
0.0
  0
LINE
  8
0
 62
     0
 10
412.708
 20
29.9792
 30
0.0
 11
412.708
 21
28.2539
 31
0.0
  0
LINE
  8
0
 62
     0
 10
412.708
 20
28.2539
 30
0.0
 11
417.177
 21
28.2539
 31
0.0
  0
LINE
  8
0
 62
     0
 10
417.177
 20
28.2539
 30
0.0
 11
417.177
 21
26.7298
 31
0.0
  0
LINE
  8
0
 62
     0
 10
417.177
 20
26.7298
 30
0.0
 11
412.478
 21
26.7298
 31
0.0
  0
LINE
  8
0
 62
     0
 10
412.478
 20
26.7298
 30
0.0
 11
412.478
 21
12.7289
 31
0.0
  0
LINE
  8
0
 62
     0
 10
412.478
 20
12.7289
 30
0.0
 11
417.177
 21
12.7289
 31
0.0
  0
LINE
  8
0
 62
     0
 10
417.177
 20
12.7289
 30
0.0
 11
417.177
 21
11.2048
 31
0.0
  0
LINE
  8
0
 62
     0
 10
417.177
 20
11.2048
 30
0.0
 11
412.708
 21
11.2048
 31
0.0
  0
LINE
  8
0
 62
     0
 10
412.708
 20
11.2048
 30
0.0
 11
412.708
 21
9.47953
 31
0.0
  0
LINE
  8
0
 62
     0
 10
412.708
 20
9.47953
 30
0.0
 11
411.73
 21
9.47953
 31
0.0
  0
LINE
  8
0
 62
     0
 10
411.73
 20
9.47953
 30
0.0
 11
411.73
 21
6.17911
 31
0.0
  0
LINE
  8
0
 62
     0
 10
411.73
 20
6.17911
 30
0.0
 11
412.708
 21
6.17911
 31
0.0
  0
LINE
  8
0
 62
     0
 10
412.708
 20
6.17911
 30
0.0
 11
412.708
 21
4.45382
 31
0.0
  0
LINE
  8
0
 62
     0
 10
412.708
 20
4.45382
 30
0.0
 11
418.98
 21
4.45382
 31
0.0
  0
LINE
  8
0
 62
     0
 10
418.98
 20
4.45382
 30
0.0
 11
418.98
 21
3.62977
 31
0.0
  0
LINE
  8
0
 62
     0
 10
418.98
 20
3.62977
 30
0.0
 11
421.778
 21
3.62977
 31
0.0
  0
LINE
  8
0
 62
     0
 10
421.778
 20
3.62977
 30
0.0
 11
421.778
 21
4.45382
 31
0.0
  0
LINE
  8
0
 62
     0
 10
421.778
 20
4.45382
 30
0.0
 11
425.009
 21
4.45382
 31
0.0
  0
LINE
  8
0
 62
     0
 10
425.009
 20
4.45382
 30
0.0
 11
425.009
 21
6.17911
 31
0.0
  0
LINE
  8
0
 62
     0
 10
425.009
 20
6.17911
 30
0.0
 11
425.93
 21
6.17911
 31
0.0
  0
LINE
  8
0
 62
     0
 10
425.93
 20
6.17911
 30
0.0
 11
425.93
 21
9.47953
 31
0.0
  0
LINE
  8
0
 62
     0
 10
425.93
 20
9.47953
 30
0.0
 11
425.009
 21
9.47953
 31
0.0
  0
LINE
  8
0
 62
     0
 10
425.009
 20
9.47953
 30
0.0
 11
425.009
 21
11.2048
 31
0.0
  0
LINE
  8
0
 62
     0
 10
425.009
 20
11.2048
 30
0.0
 11
421.778
 21
11.2048
 31
0.0
  0
LINE
  8
0
 62
     0
 10
421.778
 20
11.2048
 30
0.0
 11
421.778
 21
12.7289
 31
0.0
  0
LINE
  8
0
 62
     0
 10
421.778
 20
12.7289
 30
0.0
 11
426.48
 21
12.7289
 31
0.0
  0
LINE
  8
0
 62
     0
 10
426.48
 20
12.7289
 30
0.0
 11
426.48
 21
26.7298
 31
0.0
  0
LINE
  8
0
 62
     0
 10
426.48
 20
26.7298
 30
0.0
 11
421.778
 21
26.7298
 31
0.0
  0
LINE
  8
0
 62
     0
 10
421.778
 20
26.7298
 30
0.0
 11
421.778
 21
28.2539
 31
0.0
  0
LINE
  8
0
 62
     0
 10
421.778
 20
28.2539
 30
0.0
 11
425.009
 21
28.2539
 31
0.0
  0
LINE
  8
0
 62
     0
 10
425.009
 20
28.2539
 30
0.0
 11
425.009
 21
29.9792
 31
0.0
  0
LINE
  8
0
 62
     0
 10
425.009
 20
29.9792
 30
0.0
 11
425.93
 21
29.9792
 31
0.0
  0
LINE
  8
0
 62
     0
 10
425.93
 20
29.9792
 30
0.0
 11
425.93
 21
33.2796
 31
0.0
  0
LINE
  8
0
 62
     0
 10
425.93
 20
33.2796
 30
0.0
 11
425.009
 21
33.2796
 31
0.0
  0
LINE
  8
0
 62
     0
 10
425.009
 20
33.2796
 30
0.0
 11
425.009
 21
35.0049
 31
0.0
  0
LINE
  8
0
 62
     0
 10
425.009
 20
35.0049
 30
0.0
 11
421.778
 21
35.0049
 31
0.0
  0
LINE
  8
0
 62
     0
 10
421.778
 20
35.0049
 30
0.0
 11
421.778
 21
35.8292
 31
0.0
  0
LINE
  8
0
 62
     0
 10
421.778
 20
35.8292
 30
0.0
 11
418.98
 21
35.8292
 31
0.0
  0
LINE
  8
0
 62
     0
 10
252.934
 20
36.255
 30
0.0
 11
252.934
 21
31.5543
 31
0.0
  0
LINE
  8
0
 62
     0
 10
252.934
 20
31.5543
 30
0.0
 11
251.409
 21
31.5543
 31
0.0
  0
LINE
  8
0
 62
     0
 10
251.409
 20
31.5543
 30
0.0
 11
251.409
 21
34.7845
 31
0.0
  0
LINE
  8
0
 62
     0
 10
251.409
 20
34.7845
 30
0.0
 11
249.686
 21
34.7845
 31
0.0
  0
LINE
  8
0
 62
     0
 10
249.686
 20
34.7845
 30
0.0
 11
249.686
 21
35.705
 31
0.0
  0
LINE
  8
0
 62
     0
 10
249.686
 20
35.705
 30
0.0
 11
246.385
 21
35.705
 31
0.0
  0
LINE
  8
0
 62
     0
 10
246.385
 20
35.705
 30
0.0
 11
246.385
 21
34.7845
 31
0.0
  0
LINE
  8
0
 62
     0
 10
246.385
 20
34.7845
 30
0.0
 11
244.66
 21
34.7845
 31
0.0
  0
LINE
  8
0
 62
     0
 10
244.66
 20
34.7845
 30
0.0
 11
244.66
 21
31.5543
 31
0.0
  0
LINE
  8
0
 62
     0
 10
244.66
 20
31.5543
 30
0.0
 11
243.836
 21
31.5543
 31
0.0
  0
LINE
  8
0
 62
     0
 10
243.836
 20
31.5543
 30
0.0
 11
243.836
 21
28.7541
 31
0.0
  0
LINE
  8
0
 62
     0
 10
243.836
 20
28.7541
 30
0.0
 11
244.66
 21
28.7541
 31
0.0
  0
LINE
  8
0
 62
     0
 10
244.66
 20
28.7541
 30
0.0
 11
244.66
 21
22.4841
 31
0.0
  0
LINE
  8
0
 62
     0
 10
244.66
 20
22.4841
 30
0.0
 11
246.385
 21
22.4841
 31
0.0
  0
LINE
  8
0
 62
     0
 10
246.385
 20
22.4841
 30
0.0
 11
246.385
 21
21.5043
 31
0.0
  0
LINE
  8
0
 62
     0
 10
246.385
 20
21.5043
 30
0.0
 11
249.686
 21
21.5043
 31
0.0
  0
LINE
  8
0
 62
     0
 10
249.686
 20
21.5043
 30
0.0
 11
249.686
 21
22.4841
 31
0.0
  0
LINE
  8
0
 62
     0
 10
249.686
 20
22.4841
 30
0.0
 11
251.409
 21
22.4841
 31
0.0
  0
LINE
  8
0
 62
     0
 10
251.409
 20
22.4841
 30
0.0
 11
251.409
 21
26.9544
 31
0.0
  0
LINE
  8
0
 62
     0
 10
251.409
 20
26.9544
 30
0.0
 11
252.934
 21
26.9544
 31
0.0
  0
LINE
  8
0
 62
     0
 10
252.934
 20
26.9544
 30
0.0
 11
252.934
 21
22.2539
 31
0.0
  0
LINE
  8
0
 62
     0
 10
252.934
 20
22.2539
 30
0.0
 11
266.934
 21
22.2539
 31
0.0
  0
LINE
  8
0
 62
     0
 10
266.934
 20
22.2539
 30
0.0
 11
266.934
 21
26.9544
 31
0.0
  0
LINE
  8
0
 62
     0
 10
266.934
 20
26.9544
 30
0.0
 11
268.46
 21
26.9544
 31
0.0
  0
LINE
  8
0
 62
     0
 10
268.46
 20
26.9544
 30
0.0
 11
268.46
 21
22.4841
 31
0.0
  0
LINE
  8
0
 62
     0
 10
268.46
 20
22.4841
 30
0.0
 11
270.185
 21
22.4841
 31
0.0
  0
LINE
  8
0
 62
     0
 10
270.185
 20
22.4841
 30
0.0
 11
270.185
 21
21.5043
 31
0.0
  0
LINE
  8
0
 62
     0
 10
270.185
 20
21.5043
 30
0.0
 11
273.485
 21
21.5043
 31
0.0
  0
LINE
  8
0
 62
     0
 10
273.485
 20
21.5043
 30
0.0
 11
273.485
 21
22.4841
 31
0.0
  0
LINE
  8
0
 62
     0
 10
273.485
 20
22.4841
 30
0.0
 11
275.209
 21
22.4841
 31
0.0
  0
LINE
  8
0
 62
     0
 10
275.209
 20
22.4841
 30
0.0
 11
275.209
 21
28.7541
 31
0.0
  0
LINE
  8
0
 62
     0
 10
275.209
 20
28.7541
 30
0.0
 11
276.035
 21
28.7541
 31
0.0
  0
LINE
  8
0
 62
     0
 10
276.035
 20
28.7541
 30
0.0
 11
276.035
 21
31.5543
 31
0.0
  0
LINE
  8
0
 62
     0
 10
276.035
 20
31.5543
 30
0.0
 11
275.209
 21
31.5543
 31
0.0
  0
LINE
  8
0
 62
     0
 10
275.209
 20
31.5543
 30
0.0
 11
275.209
 21
34.7845
 31
0.0
  0
LINE
  8
0
 62
     0
 10
275.209
 20
34.7845
 30
0.0
 11
273.485
 21
34.7845
 31
0.0
  0
LINE
  8
0
 62
     0
 10
273.485
 20
34.7845
 30
0.0
 11
273.485
 21
35.705
 31
0.0
  0
LINE
  8
0
 62
     0
 10
273.485
 20
35.705
 30
0.0
 11
270.185
 21
35.705
 31
0.0
  0
LINE
  8
0
 62
     0
 10
270.185
 20
35.705
 30
0.0
 11
270.185
 21
34.7845
 31
0.0
  0
LINE
  8
0
 62
     0
 10
270.185
 20
34.7845
 30
0.0
 11
268.46
 21
34.7845
 31
0.0
  0
LINE
  8
0
 62
     0
 10
268.46
 20
34.7845
 30
0.0
 11
268.46
 21
31.5543
 31
0.0
  0
LINE
  8
0
 62
     0
 10
268.46
 20
31.5543
 30
0.0
 11
266.934
 21
31.5543
 31
0.0
  0
LINE
  8
0
 62
     0
 10
266.934
 20
31.5543
 30
0.0
 11
266.934
 21
36.255
 31
0.0
  0
LINE
  8
0
 62
     0
 10
266.934
 20
36.255
 30
0.0
 11
252.934
 21
36.255
 31
0.0
  0
LINE
  8
0
 62
     0
 10
14.8098
 20
36.255
 30
0.0
 11
14.8098
 21
31.5543
 31
0.0
  0
LINE
  8
0
 62
     0
 10
14.8098
 20
31.5543
 30
0.0
 11
13.2843
 21
31.5543
 31
0.0
  0
LINE
  8
0
 62
     0
 10
13.2843
 20
31.5543
 30
0.0
 11
13.2843
 21
34.7845
 31
0.0
  0
LINE
  8
0
 62
     0
 10
13.2843
 20
34.7845
 30
0.0
 11
11.5604
 21
34.7845
 31
0.0
  0
LINE
  8
0
 62
     0
 10
11.5604
 20
34.7845
 30
0.0
 11
11.5604
 21
35.705
 31
0.0
  0
LINE
  8
0
 62
     0
 10
11.5604
 20
35.705
 30
0.0
 11
8.25997
 21
35.705
 31
0.0
  0
LINE
  8
0
 62
     0
 10
8.25997
 20
35.705
 30
0.0
 11
8.25997
 21
34.7845
 31
0.0
  0
LINE
  8
0
 62
     0
 10
8.25997
 20
34.7845
 30
0.0
 11
6.53464
 21
34.7845
 31
0.0
  0
LINE
  8
0
 62
     0
 10
6.53464
 20
34.7845
 30
0.0
 11
6.53464
 21
31.5543
 31
0.0
  0
LINE
  8
0
 62
     0
 10
6.53464
 20
31.5543
 30
0.0
 11
5.71059
 21
31.5543
 31
0.0
  0
LINE
  8
0
 62
     0
 10
5.71059
 20
31.5543
 30
0.0
 11
5.71059
 21
28.7541
 31
0.0
  0
LINE
  8
0
 62
     0
 10
5.71059
 20
28.7541
 30
0.0
 11
6.53464
 21
28.7541
 31
0.0
  0
LINE
  8
0
 62
     0
 10
6.53464
 20
28.7541
 30
0.0
 11
6.53464
 21
22.4841
 31
0.0
  0
LINE
  8
0
 62
     0
 10
6.53464
 20
22.4841
 30
0.0
 11
8.25997
 21
22.4841
 31
0.0
  0
LINE
  8
0
 62
     0
 10
8.25997
 20
22.4841
 30
0.0
 11
8.25997
 21
21.5043
 31
0.0
  0
LINE
  8
0
 62
     0
 10
8.25997
 20
21.5043
 30
0.0
 11
11.5604
 21
21.5043
 31
0.0
  0
LINE
  8
0
 62
     0
 10
11.5604
 20
21.5043
 30
0.0
 11
11.5604
 21
22.4841
 31
0.0
  0
LINE
  8
0
 62
     0
 10
11.5604
 20
22.4841
 30
0.0
 11
13.2843
 21
22.4841
 31
0.0
  0
LINE
  8
0
 62
     0
 10
13.2843
 20
22.4841
 30
0.0
 11
13.2843
 21
26.9544
 31
0.0
  0
LINE
  8
0
 62
     0
 10
13.2843
 20
26.9544
 30
0.0
 11
14.8098
 21
26.9544
 31
0.0
  0
LINE
  8
0
 62
     0
 10
14.8098
 20
26.9544
 30
0.0
 11
14.8098
 21
22.2539
 31
0.0
  0
LINE
  8
0
 62
     0
 10
14.8098
 20
22.2539
 30
0.0
 11
28.8093
 21
22.2539
 31
0.0
  0
LINE
  8
0
 62
     0
 10
28.8093
 20
22.2539
 30
0.0
 11
28.8093
 21
26.9544
 31
0.0
  0
LINE
  8
0
 62
     0
 10
28.8093
 20
26.9544
 30
0.0
 11
30.3348
 21
26.9544
 31
0.0
  0
LINE
  8
0
 62
     0
 10
30.3348
 20
26.9544
 30
0.0
 11
30.3348
 21
22.4841
 31
0.0
  0
LINE
  8
0
 62
     0
 10
30.3348
 20
22.4841
 30
0.0
 11
32.0601
 21
22.4841
 31
0.0
  0
LINE
  8
0
 62
     0
 10
32.0601
 20
22.4841
 30
0.0
 11
32.0601
 21
21.5043
 31
0.0
  0
LINE
  8
0
 62
     0
 10
32.0601
 20
21.5043
 30
0.0
 11
35.3603
 21
21.5043
 31
0.0
  0
LINE
  8
0
 62
     0
 10
35.3603
 20
21.5043
 30
0.0
 11
35.3603
 21
22.4841
 31
0.0
  0
LINE
  8
0
 62
     0
 10
35.3603
 20
22.4841
 30
0.0
 11
37.0844
 21
22.4841
 31
0.0
  0
LINE
  8
0
 62
     0
 10
37.0844
 20
22.4841
 30
0.0
 11
37.0844
 21
28.7541
 31
0.0
  0
LINE
  8
0
 62
     0
 10
37.0844
 20
28.7541
 30
0.0
 11
37.9099
 21
28.7541
 31
0.0
  0
LINE
  8
0
 62
     0
 10
37.9099
 20
28.7541
 30
0.0
 11
37.9099
 21
31.5543
 31
0.0
  0
LINE
  8
0
 62
     0
 10
37.9099
 20
31.5543
 30
0.0
 11
37.0844
 21
31.5543
 31
0.0
  0
LINE
  8
0
 62
     0
 10
37.0844
 20
31.5543
 30
0.0
 11
37.0844
 21
34.7845
 31
0.0
  0
LINE
  8
0
 62
     0
 10
37.0844
 20
34.7845
 30
0.0
 11
35.3603
 21
34.7845
 31
0.0
  0
LINE
  8
0
 62
     0
 10
35.3603
 20
34.7845
 30
0.0
 11
35.3603
 21
35.705
 31
0.0
  0
LINE
  8
0
 62
     0
 10
35.3603
 20
35.705
 30
0.0
 11
32.0601
 21
35.705
 31
0.0
  0
LINE
  8
0
 62
     0
 10
32.0601
 20
35.705
 30
0.0
 11
32.0601
 21
34.7845
 31
0.0
  0
LINE
  8
0
 62
     0
 10
32.0601
 20
34.7845
 30
0.0
 11
30.3348
 21
34.7845
 31
0.0
  0
LINE
  8
0
 62
     0
 10
30.3348
 20
34.7845
 30
0.0
 11
30.3348
 21
31.5543
 31
0.0
  0
LINE
  8
0
 62
     0
 10
30.3348
 20
31.5543
 30
0.0
 11
28.8093
 21
31.5543
 31
0.0
  0
LINE
  8
0
 62
     0
 10
28.8093
 20
31.5543
 30
0.0
 11
28.8093
 21
36.255
 31
0.0
  0
LINE
  8
0
 62
     0
 10
28.8093
 20
36.255
 30
0.0
 11
14.8098
 21
36.255
 31
0.0
  0
LINE
  8
0
 62
     0
 10
393.428
 20
36.255
 30
0.0
 11
407.43
 21
36.255
 31
0.0
  0
LINE
  8
0
 62
     0
 10
407.43
 20
36.255
 30
0.0
 11
407.43
 21
22.2539
 31
0.0
  0
LINE
  8
0
 62
     0
 10
407.43
 20
22.2539
 30
0.0
 11
393.428
 21
22.2539
 31
0.0
  0
LINE
  8
0
 62
     0
 10
393.428
 20
22.2539
 30
0.0
 11
393.428
 21
36.255
 31
0.0
  0
LINE
  8
0
 62
     0
 10
374.378
 20
36.255
 30
0.0
 11
388.38
 21
36.255
 31
0.0
  0
LINE
  8
0
 62
     0
 10
388.38
 20
36.255
 30
0.0
 11
388.38
 21
22.2539
 31
0.0
  0
LINE
  8
0
 62
     0
 10
388.38
 20
22.2539
 30
0.0
 11
374.378
 21
22.2539
 31
0.0
  0
LINE
  8
0
 62
     0
 10
374.378
 20
22.2539
 30
0.0
 11
374.378
 21
36.255
 31
0.0
  0
LINE
  8
0
 62
     0
 10
355.328
 20
36.255
 30
0.0
 11
369.33
 21
36.255
 31
0.0
  0
LINE
  8
0
 62
     0
 10
369.33
 20
36.255
 30
0.0
 11
369.33
 21
22.2539
 31
0.0
  0
LINE
  8
0
 62
     0
 10
369.33
 20
22.2539
 30
0.0
 11
355.328
 21
22.2539
 31
0.0
  0
LINE
  8
0
 62
     0
 10
355.328
 20
22.2539
 30
0.0
 11
355.328
 21
36.255
 31
0.0
  0
LINE
  8
0
 62
     0
 10
312.466
 20
36.255
 30
0.0
 11
326.465
 21
36.255
 31
0.0
  0
LINE
  8
0
 62
     0
 10
326.465
 20
36.255
 30
0.0
 11
326.465
 21
22.2539
 31
0.0
  0
LINE
  8
0
 62
     0
 10
326.465
 20
22.2539
 30
0.0
 11
312.466
 21
22.2539
 31
0.0
  0
LINE
  8
0
 62
     0
 10
312.466
 20
22.2539
 30
0.0
 11
312.466
 21
36.255
 31
0.0
  0
LINE
  8
0
 62
     0
 10
217.216
 20
36.255
 30
0.0
 11
231.215
 21
36.255
 31
0.0
  0
LINE
  8
0
 62
     0
 10
231.215
 20
36.255
 30
0.0
 11
231.215
 21
22.2539
 31
0.0
  0
LINE
  8
0
 62
     0
 10
231.215
 20
22.2539
 30
0.0
 11
217.216
 21
22.2539
 31
0.0
  0
LINE
  8
0
 62
     0
 10
217.216
 20
22.2539
 30
0.0
 11
217.216
 21
36.255
 31
0.0
  0
LINE
  8
0
 62
     0
 10
198.166
 20
36.255
 30
0.0
 11
212.165
 21
36.255
 31
0.0
  0
LINE
  8
0
 62
     0
 10
212.165
 20
36.255
 30
0.0
 11
212.165
 21
22.2539
 31
0.0
  0
LINE
  8
0
 62
     0
 10
212.165
 20
22.2539
 30
0.0
 11
198.166
 21
22.2539
 31
0.0
  0
LINE
  8
0
 62
     0
 10
198.166
 20
22.2539
 30
0.0
 11
198.166
 21
36.255
 31
0.0
  0
LINE
  8
0
 62
     0
 10
179.116
 20
36.255
 30
0.0
 11
193.115
 21
36.255
 31
0.0
  0
LINE
  8
0
 62
     0
 10
193.115
 20
36.255
 30
0.0
 11
193.115
 21
22.2539
 31
0.0
  0
LINE
  8
0
 62
     0
 10
193.115
 20
22.2539
 30
0.0
 11
179.116
 21
22.2539
 31
0.0
  0
LINE
  8
0
 62
     0
 10
179.116
 20
22.2539
 30
0.0
 11
179.116
 21
36.255
 31
0.0
  0
LINE
  8
0
 62
     0
 10
160.066
 20
36.255
 30
0.0
 11
174.065
 21
36.255
 31
0.0
  0
LINE
  8
0
 62
     0
 10
174.065
 20
36.255
 30
0.0
 11
174.065
 21
22.2539
 31
0.0
  0
LINE
  8
0
 62
     0
 10
174.065
 20
22.2539
 30
0.0
 11
160.066
 21
22.2539
 31
0.0
  0
LINE
  8
0
 62
     0
 10
160.066
 20
22.2539
 30
0.0
 11
160.066
 21
36.255
 31
0.0
  0
LINE
  8
0
 62
     0
 10
141.016
 20
36.255
 30
0.0
 11
155.015
 21
36.255
 31
0.0
  0
LINE
  8
0
 62
     0
 10
155.015
 20
36.255
 30
0.0
 11
155.015
 21
22.2539
 31
0.0
  0
LINE
  8
0
 62
     0
 10
155.015
 20
22.2539
 30
0.0
 11
141.016
 21
22.2539
 31
0.0
  0
LINE
  8
0
 62
     0
 10
141.016
 20
22.2539
 30
0.0
 11
141.016
 21
36.255
 31
0.0
  0
LINE
  8
0
 62
     0
 10
121.966
 20
36.255
 30
0.0
 11
135.965
 21
36.255
 31
0.0
  0
LINE
  8
0
 62
     0
 10
135.965
 20
36.255
 30
0.0
 11
135.965
 21
22.2539
 31
0.0
  0
LINE
  8
0
 62
     0
 10
135.965
 20
22.2539
 30
0.0
 11
121.966
 21
22.2539
 31
0.0
  0
LINE
  8
0
 62
     0
 10
121.966
 20
22.2539
 30
0.0
 11
121.966
 21
36.255
 31
0.0
  0
LINE
  8
0
 62
     0
 10
102.916
 20
36.255
 30
0.0
 11
116.915
 21
36.255
 31
0.0
  0
LINE
  8
0
 62
     0
 10
116.915
 20
36.255
 30
0.0
 11
116.915
 21
22.2539
 31
0.0
  0
LINE
  8
0
 62
     0
 10
116.915
 20
22.2539
 30
0.0
 11
102.916
 21
22.2539
 31
0.0
  0
LINE
  8
0
 62
     0
 10
102.916
 20
22.2539
 30
0.0
 11
102.916
 21
36.255
 31
0.0
  0
LINE
  8
0
 62
     0
 10
83.8659
 20
36.255
 30
0.0
 11
97.8655
 21
36.255
 31
0.0
  0
LINE
  8
0
 62
     0
 10
97.8655
 20
36.255
 30
0.0
 11
97.8655
 21
22.2539
 31
0.0
  0
LINE
  8
0
 62
     0
 10
97.8655
 20
22.2539
 30
0.0
 11
83.8659
 21
22.2539
 31
0.0
  0
LINE
  8
0
 62
     0
 10
83.8659
 20
22.2539
 30
0.0
 11
83.8659
 21
36.255
 31
0.0
  0
LINE
  8
0
 62
     0
 10
64.8159
 20
36.255
 30
0.0
 11
78.8155
 21
36.255
 31
0.0
  0
LINE
  8
0
 62
     0
 10
78.8155
 20
36.255
 30
0.0
 11
78.8155
 21
22.2539
 31
0.0
  0
LINE
  8
0
 62
     0
 10
78.8155
 20
22.2539
 30
0.0
 11
64.8159
 21
22.2539
 31
0.0
  0
LINE
  8
0
 62
     0
 10
64.8159
 20
22.2539
 30
0.0
 11
64.8159
 21
36.255
 31
0.0
  0
LINE
  8
0
 62
     0
 10
45.7659
 20
36.255
 30
0.0
 11
59.7655
 21
36.255
 31
0.0
  0
LINE
  8
0
 62
     0
 10
59.7655
 20
36.255
 30
0.0
 11
59.7655
 21
22.2539
 31
0.0
  0
LINE
  8
0
 62
     0
 10
59.7655
 20
22.2539
 30
0.0
 11
45.7659
 21
22.2539
 31
0.0
  0
LINE
  8
0
 62
     0
 10
45.7659
 20
22.2539
 30
0.0
 11
45.7659
 21
36.255
 31
0.0
  0
LINE
  8
0
 62
     0
 10
257.697
 20
55.305
 30
0.0
 11
257.697
 21
50.6042
 31
0.0
  0
LINE
  8
0
 62
     0
 10
257.697
 20
50.6042
 30
0.0
 11
256.172
 21
50.6042
 31
0.0
  0
LINE
  8
0
 62
     0
 10
256.172
 20
50.6042
 30
0.0
 11
256.172
 21
53.8346
 31
0.0
  0
LINE
  8
0
 62
     0
 10
256.172
 20
53.8346
 30
0.0
 11
254.447
 21
53.8346
 31
0.0
  0
LINE
  8
0
 62
     0
 10
254.447
 20
53.8346
 30
0.0
 11
254.447
 21
54.755
 31
0.0
  0
LINE
  8
0
 62
     0
 10
254.447
 20
54.755
 30
0.0
 11
251.147
 21
54.755
 31
0.0
  0
LINE
  8
0
 62
     0
 10
251.147
 20
54.755
 30
0.0
 11
251.147
 21
53.8346
 31
0.0
  0
LINE
  8
0
 62
     0
 10
251.147
 20
53.8346
 30
0.0
 11
249.422
 21
53.8346
 31
0.0
  0
LINE
  8
0
 62
     0
 10
249.422
 20
53.8346
 30
0.0
 11
249.422
 21
50.6042
 31
0.0
  0
LINE
  8
0
 62
     0
 10
249.422
 20
50.6042
 30
0.0
 11
248.597
 21
50.6042
 31
0.0
  0
LINE
  8
0
 62
     0
 10
248.597
 20
50.6042
 30
0.0
 11
248.597
 21
47.8042
 31
0.0
  0
LINE
  8
0
 62
     0
 10
248.597
 20
47.8042
 30
0.0
 11
249.422
 21
47.8042
 31
0.0
  0
LINE
  8
0
 62
     0
 10
249.422
 20
47.8042
 30
0.0
 11
249.422
 21
41.5339
 31
0.0
  0
LINE
  8
0
 62
     0
 10
249.422
 20
41.5339
 30
0.0
 11
251.147
 21
41.5339
 31
0.0
  0
LINE
  8
0
 62
     0
 10
251.147
 20
41.5339
 30
0.0
 11
251.147
 21
40.5543
 31
0.0
  0
LINE
  8
0
 62
     0
 10
251.147
 20
40.5543
 30
0.0
 11
254.447
 21
40.5543
 31
0.0
  0
LINE
  8
0
 62
     0
 10
254.447
 20
40.5543
 30
0.0
 11
254.447
 21
41.5339
 31
0.0
  0
LINE
  8
0
 62
     0
 10
254.447
 20
41.5339
 30
0.0
 11
256.172
 21
41.5339
 31
0.0
  0
LINE
  8
0
 62
     0
 10
256.172
 20
41.5339
 30
0.0
 11
256.172
 21
46.0043
 31
0.0
  0
LINE
  8
0
 62
     0
 10
256.172
 20
46.0043
 30
0.0
 11
257.697
 21
46.0043
 31
0.0
  0
LINE
  8
0
 62
     0
 10
257.697
 20
46.0043
 30
0.0
 11
257.697
 21
41.3039
 31
0.0
  0
LINE
  8
0
 62
     0
 10
257.697
 20
41.3039
 30
0.0
 11
271.697
 21
41.3039
 31
0.0
  0
LINE
  8
0
 62
     0
 10
271.697
 20
41.3039
 30
0.0
 11
271.697
 21
46.0043
 31
0.0
  0
LINE
  8
0
 62
     0
 10
271.697
 20
46.0043
 30
0.0
 11
273.222
 21
46.0043
 31
0.0
  0
LINE
  8
0
 62
     0
 10
273.222
 20
46.0043
 30
0.0
 11
273.222
 21
41.5339
 31
0.0
  0
LINE
  8
0
 62
     0
 10
273.222
 20
41.5339
 30
0.0
 11
274.948
 21
41.5339
 31
0.0
  0
LINE
  8
0
 62
     0
 10
274.948
 20
41.5339
 30
0.0
 11
274.948
 21
40.5543
 31
0.0
  0
LINE
  8
0
 62
     0
 10
274.948
 20
40.5543
 30
0.0
 11
278.246
 21
40.5543
 31
0.0
  0
LINE
  8
0
 62
     0
 10
278.246
 20
40.5543
 30
0.0
 11
278.246
 21
41.5339
 31
0.0
  0
LINE
  8
0
 62
     0
 10
278.246
 20
41.5339
 30
0.0
 11
279.972
 21
41.5339
 31
0.0
  0
LINE
  8
0
 62
     0
 10
279.972
 20
41.5339
 30
0.0
 11
279.972
 21
47.8042
 31
0.0
  0
LINE
  8
0
 62
     0
 10
279.972
 20
47.8042
 30
0.0
 11
280.797
 21
47.8042
 31
0.0
  0
LINE
  8
0
 62
     0
 10
280.797
 20
47.8042
 30
0.0
 11
280.797
 21
50.6042
 31
0.0
  0
LINE
  8
0
 62
     0
 10
280.797
 20
50.6042
 30
0.0
 11
279.972
 21
50.6042
 31
0.0
  0
LINE
  8
0
 62
     0
 10
279.972
 20
50.6042
 30
0.0
 11
279.972
 21
53.8346
 31
0.0
  0
LINE
  8
0
 62
     0
 10
279.972
 20
53.8346
 30
0.0
 11
278.246
 21
53.8346
 31
0.0
  0
LINE
  8
0
 62
     0
 10
278.246
 20
53.8346
 30
0.0
 11
278.246
 21
54.755
 31
0.0
  0
LINE
  8
0
 62
     0
 10
278.246
 20
54.755
 30
0.0
 11
274.948
 21
54.755
 31
0.0
  0
LINE
  8
0
 62
     0
 10
274.948
 20
54.755
 30
0.0
 11
274.948
 21
53.8346
 31
0.0
  0
LINE
  8
0
 62
     0
 10
274.948
 20
53.8346
 30
0.0
 11
273.222
 21
53.8346
 31
0.0
  0
LINE
  8
0
 62
     0
 10
273.222
 20
53.8346
 30
0.0
 11
273.222
 21
50.6042
 31
0.0
  0
LINE
  8
0
 62
     0
 10
273.222
 20
50.6042
 30
0.0
 11
271.697
 21
50.6042
 31
0.0
  0
LINE
  8
0
 62
     0
 10
271.697
 20
50.6042
 30
0.0
 11
271.697
 21
55.305
 31
0.0
  0
LINE
  8
0
 62
     0
 10
271.697
 20
55.305
 30
0.0
 11
257.697
 21
55.305
 31
0.0
  0
LINE
  8
0
 62
     0
 10
393.428
 20
55.305
 30
0.0
 11
407.43
 21
55.305
 31
0.0
  0
LINE
  8
0
 62
     0
 10
407.43
 20
55.305
 30
0.0
 11
407.43
 21
41.3039
 31
0.0
  0
LINE
  8
0
 62
     0
 10
407.43
 20
41.3039
 30
0.0
 11
393.428
 21
41.3039
 31
0.0
  0
LINE
  8
0
 62
     0
 10
393.428
 20
41.3039
 30
0.0
 11
393.428
 21
55.305
 31
0.0
  0
LINE
  8
0
 62
     0
 10
374.378
 20
55.305
 30
0.0
 11
388.38
 21
55.305
 31
0.0
  0
LINE
  8
0
 62
     0
 10
388.38
 20
55.305
 30
0.0
 11
388.38
 21
41.3039
 31
0.0
  0
LINE
  8
0
 62
     0
 10
388.38
 20
41.3039
 30
0.0
 11
374.378
 21
41.3039
 31
0.0
  0
LINE
  8
0
 62
     0
 10
374.378
 20
41.3039
 30
0.0
 11
374.378
 21
55.305
 31
0.0
  0
LINE
  8
0
 62
     0
 10
355.328
 20
55.305
 30
0.0
 11
369.33
 21
55.305
 31
0.0
  0
LINE
  8
0
 62
     0
 10
369.33
 20
55.305
 30
0.0
 11
369.33
 21
41.3039
 31
0.0
  0
LINE
  8
0
 62
     0
 10
369.33
 20
41.3039
 30
0.0
 11
355.328
 21
41.3039
 31
0.0
  0
LINE
  8
0
 62
     0
 10
355.328
 20
41.3039
 30
0.0
 11
355.328
 21
55.305
 31
0.0
  0
LINE
  8
0
 62
     0
 10
226.741
 20
55.305
 30
0.0
 11
240.74
 21
55.305
 31
0.0
  0
LINE
  8
0
 62
     0
 10
240.74
 20
55.305
 30
0.0
 11
240.74
 21
41.3039
 31
0.0
  0
LINE
  8
0
 62
     0
 10
240.74
 20
41.3039
 30
0.0
 11
226.741
 21
41.3039
 31
0.0
  0
LINE
  8
0
 62
     0
 10
226.741
 20
41.3039
 30
0.0
 11
226.741
 21
55.305
 31
0.0
  0
LINE
  8
0
 62
     0
 10
207.691
 20
55.305
 30
0.0
 11
221.69
 21
55.305
 31
0.0
  0
LINE
  8
0
 62
     0
 10
221.69
 20
55.305
 30
0.0
 11
221.69
 21
41.3039
 31
0.0
  0
LINE
  8
0
 62
     0
 10
221.69
 20
41.3039
 30
0.0
 11
207.691
 21
41.3039
 31
0.0
  0
LINE
  8
0
 62
     0
 10
207.691
 20
41.3039
 30
0.0
 11
207.691
 21
55.305
 31
0.0
  0
LINE
  8
0
 62
     0
 10
188.641
 20
55.305
 30
0.0
 11
202.64
 21
55.305
 31
0.0
  0
LINE
  8
0
 62
     0
 10
202.64
 20
55.305
 30
0.0
 11
202.64
 21
41.3039
 31
0.0
  0
LINE
  8
0
 62
     0
 10
202.64
 20
41.3039
 30
0.0
 11
188.641
 21
41.3039
 31
0.0
  0
LINE
  8
0
 62
     0
 10
188.641
 20
41.3039
 30
0.0
 11
188.641
 21
55.305
 31
0.0
  0
LINE
  8
0
 62
     0
 10
169.591
 20
55.305
 30
0.0
 11
183.59
 21
55.305
 31
0.0
  0
LINE
  8
0
 62
     0
 10
183.59
 20
55.305
 30
0.0
 11
183.59
 21
41.3039
 31
0.0
  0
LINE
  8
0
 62
     0
 10
183.59
 20
41.3039
 30
0.0
 11
169.591
 21
41.3039
 31
0.0
  0
LINE
  8
0
 62
     0
 10
169.591
 20
41.3039
 30
0.0
 11
169.591
 21
55.305
 31
0.0
  0
LINE
  8
0
 62
     0
 10
150.541
 20
55.305
 30
0.0
 11
164.54
 21
55.305
 31
0.0
  0
LINE
  8
0
 62
     0
 10
164.54
 20
55.305
 30
0.0
 11
164.54
 21
41.3039
 31
0.0
  0
LINE
  8
0
 62
     0
 10
164.54
 20
41.3039
 30
0.0
 11
150.541
 21
41.3039
 31
0.0
  0
LINE
  8
0
 62
     0
 10
150.541
 20
41.3039
 30
0.0
 11
150.541
 21
55.305
 31
0.0
  0
LINE
  8
0
 62
     0
 10
131.491
 20
55.305
 30
0.0
 11
145.49
 21
55.305
 31
0.0
  0
LINE
  8
0
 62
     0
 10
145.49
 20
55.305
 30
0.0
 11
145.49
 21
41.3039
 31
0.0
  0
LINE
  8
0
 62
     0
 10
145.49
 20
41.3039
 30
0.0
 11
131.491
 21
41.3039
 31
0.0
  0
LINE
  8
0
 62
     0
 10
131.491
 20
41.3039
 30
0.0
 11
131.491
 21
55.305
 31
0.0
  0
LINE
  8
0
 62
     0
 10
112.441
 20
55.305
 30
0.0
 11
126.44
 21
55.305
 31
0.0
  0
LINE
  8
0
 62
     0
 10
126.44
 20
55.305
 30
0.0
 11
126.44
 21
41.3039
 31
0.0
  0
LINE
  8
0
 62
     0
 10
126.44
 20
41.3039
 30
0.0
 11
112.441
 21
41.3039
 31
0.0
  0
LINE
  8
0
 62
     0
 10
112.441
 20
41.3039
 30
0.0
 11
112.441
 21
55.305
 31
0.0
  0
LINE
  8
0
 62
     0
 10
93.3909
 20
55.305
 30
0.0
 11
107.39
 21
55.305
 31
0.0
  0
LINE
  8
0
 62
     0
 10
107.39
 20
55.305
 30
0.0
 11
107.39
 21
41.3039
 31
0.0
  0
LINE
  8
0
 62
     0
 10
107.39
 20
41.3039
 30
0.0
 11
93.3909
 21
41.3039
 31
0.0
  0
LINE
  8
0
 62
     0
 10
93.3909
 20
41.3039
 30
0.0
 11
93.3909
 21
55.305
 31
0.0
  0
LINE
  8
0
 62
     0
 10
74.3409
 20
55.305
 30
0.0
 11
88.3405
 21
55.305
 31
0.0
  0
LINE
  8
0
 62
     0
 10
88.3405
 20
55.305
 30
0.0
 11
88.3405
 21
41.3039
 31
0.0
  0
LINE
  8
0
 62
     0
 10
88.3405
 20
41.3039
 30
0.0
 11
74.3409
 21
41.3039
 31
0.0
  0
LINE
  8
0
 62
     0
 10
74.3409
 20
41.3039
 30
0.0
 11
74.3409
 21
55.305
 31
0.0
  0
LINE
  8
0
 62
     0
 10
55.2909
 20
55.305
 30
0.0
 11
69.2905
 21
55.305
 31
0.0
  0
LINE
  8
0
 62
     0
 10
69.2905
 20
55.305
 30
0.0
 11
69.2905
 21
41.3039
 31
0.0
  0
LINE
  8
0
 62
     0
 10
69.2905
 20
41.3039
 30
0.0
 11
55.2909
 21
41.3039
 31
0.0
  0
LINE
  8
0
 62
     0
 10
55.2909
 20
41.3039
 30
0.0
 11
55.2909
 21
55.305
 31
0.0
  0
LINE
  8
0
 62
     0
 10
36.2409
 20
55.305
 30
0.0
 11
50.2405
 21
55.305
 31
0.0
  0
LINE
  8
0
 62
     0
 10
50.2405
 20
55.305
 30
0.0
 11
50.2405
 21
41.3039
 31
0.0
  0
LINE
  8
0
 62
     0
 10
50.2405
 20
41.3039
 30
0.0
 11
36.2409
 21
41.3039
 31
0.0
  0
LINE
  8
0
 62
     0
 10
36.2409
 20
41.3039
 30
0.0
 11
36.2409
 21
55.305
 31
0.0
  0
LINE
  8
0
 62
     0
 10
10.0473
 20
55.305
 30
0.0
 11
24.0468
 21
55.305
 31
0.0
  0
LINE
  8
0
 62
     0
 10
24.0468
 20
55.305
 30
0.0
 11
24.0468
 21
41.3039
 31
0.0
  0
LINE
  8
0
 62
     0
 10
24.0468
 20
41.3039
 30
0.0
 11
10.0473
 21
41.3039
 31
0.0
  0
LINE
  8
0
 62
     0
 10
10.0473
 20
41.3039
 30
0.0
 11
10.0473
 21
55.305
 31
0.0
  0
LINE
  8
0
 62
     0
 10
418.98
 20
73.9292
 30
0.0
 11
418.98
 21
73.1051
 31
0.0
  0
LINE
  8
0
 62
     0
 10
418.98
 20
73.1051
 30
0.0
 11
412.708
 21
73.1051
 31
0.0
  0
LINE
  8
0
 62
     0
 10
412.708
 20
73.1051
 30
0.0
 11
412.708
 21
71.3796
 31
0.0
  0
LINE
  8
0
 62
     0
 10
412.708
 20
71.3796
 30
0.0
 11
411.73
 21
71.3796
 31
0.0
  0
LINE
  8
0
 62
     0
 10
411.73
 20
71.3796
 30
0.0
 11
411.73
 21
68.0791
 31
0.0
  0
LINE
  8
0
 62
     0
 10
411.73
 20
68.0791
 30
0.0
 11
412.708
 21
68.0791
 31
0.0
  0
LINE
  8
0
 62
     0
 10
412.708
 20
68.0791
 30
0.0
 11
412.708
 21
66.354
 31
0.0
  0
LINE
  8
0
 62
     0
 10
412.708
 20
66.354
 30
0.0
 11
417.177
 21
66.354
 31
0.0
  0
LINE
  8
0
 62
     0
 10
417.177
 20
66.354
 30
0.0
 11
417.177
 21
64.83
 31
0.0
  0
LINE
  8
0
 62
     0
 10
417.177
 20
64.83
 30
0.0
 11
412.478
 21
64.83
 31
0.0
  0
LINE
  8
0
 62
     0
 10
412.478
 20
64.83
 30
0.0
 11
412.478
 21
50.8289
 31
0.0
  0
LINE
  8
0
 62
     0
 10
412.478
 20
50.8289
 30
0.0
 11
417.177
 21
50.8289
 31
0.0
  0
LINE
  8
0
 62
     0
 10
417.177
 20
50.8289
 30
0.0
 11
417.177
 21
49.3049
 31
0.0
  0
LINE
  8
0
 62
     0
 10
417.177
 20
49.3049
 30
0.0
 11
412.708
 21
49.3049
 31
0.0
  0
LINE
  8
0
 62
     0
 10
412.708
 20
49.3049
 30
0.0
 11
412.708
 21
47.5795
 31
0.0
  0
LINE
  8
0
 62
     0
 10
412.708
 20
47.5795
 30
0.0
 11
411.73
 21
47.5795
 31
0.0
  0
LINE
  8
0
 62
     0
 10
411.73
 20
47.5795
 30
0.0
 11
411.73
 21
44.2793
 31
0.0
  0
LINE
  8
0
 62
     0
 10
411.73
 20
44.2793
 30
0.0
 11
412.708
 21
44.2793
 31
0.0
  0
LINE
  8
0
 62
     0
 10
412.708
 20
44.2793
 30
0.0
 11
412.708
 21
42.5538
 31
0.0
  0
LINE
  8
0
 62
     0
 10
412.708
 20
42.5538
 30
0.0
 11
418.98
 21
42.5538
 31
0.0
  0
LINE
  8
0
 62
     0
 10
418.98
 20
42.5538
 30
0.0
 11
418.98
 21
41.7297
 31
0.0
  0
LINE
  8
0
 62
     0
 10
418.98
 20
41.7297
 30
0.0
 11
421.778
 21
41.7297
 31
0.0
  0
LINE
  8
0
 62
     0
 10
421.778
 20
41.7297
 30
0.0
 11
421.778
 21
42.5538
 31
0.0
  0
LINE
  8
0
 62
     0
 10
421.778
 20
42.5538
 30
0.0
 11
425.009
 21
42.5538
 31
0.0
  0
LINE
  8
0
 62
     0
 10
425.009
 20
42.5538
 30
0.0
 11
425.009
 21
44.2793
 31
0.0
  0
LINE
  8
0
 62
     0
 10
425.009
 20
44.2793
 30
0.0
 11
425.93
 21
44.2793
 31
0.0
  0
LINE
  8
0
 62
     0
 10
425.93
 20
44.2793
 30
0.0
 11
425.93
 21
47.5795
 31
0.0
  0
LINE
  8
0
 62
     0
 10
425.93
 20
47.5795
 30
0.0
 11
425.009
 21
47.5795
 31
0.0
  0
LINE
  8
0
 62
     0
 10
425.009
 20
47.5795
 30
0.0
 11
425.009
 21
49.3049
 31
0.0
  0
LINE
  8
0
 62
     0
 10
425.009
 20
49.3049
 30
0.0
 11
421.778
 21
49.3049
 31
0.0
  0
LINE
  8
0
 62
     0
 10
421.778
 20
49.3049
 30
0.0
 11
421.778
 21
50.8289
 31
0.0
  0
LINE
  8
0
 62
     0
 10
421.778
 20
50.8289
 30
0.0
 11
426.48
 21
50.8289
 31
0.0
  0
LINE
  8
0
 62
     0
 10
426.48
 20
50.8289
 30
0.0
 11
426.48
 21
64.83
 31
0.0
  0
LINE
  8
0
 62
     0
 10
426.48
 20
64.83
 30
0.0
 11
421.778
 21
64.83
 31
0.0
  0
LINE
  8
0
 62
     0
 10
421.778
 20
64.83
 30
0.0
 11
421.778
 21
66.354
 31
0.0
  0
LINE
  8
0
 62
     0
 10
421.778
 20
66.354
 30
0.0
 11
425.009
 21
66.354
 31
0.0
  0
LINE
  8
0
 62
     0
 10
425.009
 20
66.354
 30
0.0
 11
425.009
 21
68.0791
 31
0.0
  0
LINE
  8
0
 62
     0
 10
425.009
 20
68.0791
 30
0.0
 11
425.93
 21
68.0791
 31
0.0
  0
LINE
  8
0
 62
     0
 10
425.93
 20
68.0791
 30
0.0
 11
425.93
 21
71.3796
 31
0.0
  0
LINE
  8
0
 62
     0
 10
425.93
 20
71.3796
 30
0.0
 11
425.009
 21
71.3796
 31
0.0
  0
LINE
  8
0
 62
     0
 10
425.009
 20
71.3796
 30
0.0
 11
425.009
 21
73.1051
 31
0.0
  0
LINE
  8
0
 62
     0
 10
425.009
 20
73.1051
 30
0.0
 11
421.778
 21
73.1051
 31
0.0
  0
LINE
  8
0
 62
     0
 10
421.778
 20
73.1051
 30
0.0
 11
421.778
 21
73.9292
 31
0.0
  0
LINE
  8
0
 62
     0
 10
421.778
 20
73.9292
 30
0.0
 11
418.98
 21
73.9292
 31
0.0
  0
LINE
  8
0
 62
     0
 10
393.428
 20
74.355
 30
0.0
 11
407.43
 21
74.355
 31
0.0
  0
LINE
  8
0
 62
     0
 10
407.43
 20
74.355
 30
0.0
 11
407.43
 21
60.3539
 31
0.0
  0
LINE
  8
0
 62
     0
 10
407.43
 20
60.3539
 30
0.0
 11
393.428
 21
60.3539
 31
0.0
  0
LINE
  8
0
 62
     0
 10
393.428
 20
60.3539
 30
0.0
 11
393.428
 21
74.355
 31
0.0
  0
LINE
  8
0
 62
     0
 10
374.378
 20
74.355
 30
0.0
 11
388.38
 21
74.355
 31
0.0
  0
LINE
  8
0
 62
     0
 10
388.38
 20
74.355
 30
0.0
 11
388.38
 21
60.3539
 31
0.0
  0
LINE
  8
0
 62
     0
 10
388.38
 20
60.3539
 30
0.0
 11
374.378
 21
60.3539
 31
0.0
  0
LINE
  8
0
 62
     0
 10
374.378
 20
60.3539
 30
0.0
 11
374.378
 21
74.355
 31
0.0
  0
LINE
  8
0
 62
     0
 10
355.328
 20
74.355
 30
0.0
 11
369.33
 21
74.355
 31
0.0
  0
LINE
  8
0
 62
     0
 10
369.33
 20
74.355
 30
0.0
 11
369.33
 21
60.3539
 31
0.0
  0
LINE
  8
0
 62
     0
 10
369.33
 20
60.3539
 30
0.0
 11
355.328
 21
60.3539
 31
0.0
  0
LINE
  8
0
 62
     0
 10
355.328
 20
60.3539
 30
0.0
 11
355.328
 21
74.355
 31
0.0
  0
LINE
  8
0
 62
     0
 10
331.516
 20
74.355
 30
0.0
 11
345.515
 21
74.355
 31
0.0
  0
LINE
  8
0
 62
     0
 10
345.515
 20
74.355
 30
0.0
 11
345.515
 21
60.3539
 31
0.0
  0
LINE
  8
0
 62
     0
 10
345.515
 20
60.3539
 30
0.0
 11
331.516
 21
60.3539
 31
0.0
  0
LINE
  8
0
 62
     0
 10
331.516
 20
60.3539
 30
0.0
 11
331.516
 21
74.355
 31
0.0
  0
LINE
  8
0
 62
     0
 10
312.466
 20
74.355
 30
0.0
 11
326.465
 21
74.355
 31
0.0
  0
LINE
  8
0
 62
     0
 10
326.465
 20
74.355
 30
0.0
 11
326.465
 21
60.3539
 31
0.0
  0
LINE
  8
0
 62
     0
 10
326.465
 20
60.3539
 30
0.0
 11
312.466
 21
60.3539
 31
0.0
  0
LINE
  8
0
 62
     0
 10
312.466
 20
60.3539
 30
0.0
 11
312.466
 21
74.355
 31
0.0
  0
LINE
  8
0
 62
     0
 10
293.416
 20
74.355
 30
0.0
 11
307.415
 21
74.355
 31
0.0
  0
LINE
  8
0
 62
     0
 10
307.415
 20
74.355
 30
0.0
 11
307.415
 21
60.3539
 31
0.0
  0
LINE
  8
0
 62
     0
 10
307.415
 20
60.3539
 30
0.0
 11
293.416
 21
60.3539
 31
0.0
  0
LINE
  8
0
 62
     0
 10
293.416
 20
60.3539
 30
0.0
 11
293.416
 21
74.355
 31
0.0
  0
LINE
  8
0
 62
     0
 10
264.841
 20
74.355
 30
0.0
 11
278.84
 21
74.355
 31
0.0
  0
LINE
  8
0
 62
     0
 10
278.84
 20
74.355
 30
0.0
 11
278.84
 21
60.3539
 31
0.0
  0
LINE
  8
0
 62
     0
 10
278.84
 20
60.3539
 30
0.0
 11
264.841
 21
60.3539
 31
0.0
  0
LINE
  8
0
 62
     0
 10
264.841
 20
60.3539
 30
0.0
 11
264.841
 21
74.355
 31
0.0
  0
LINE
  8
0
 62
     0
 10
241.028
 20
74.355
 30
0.0
 11
255.028
 21
74.355
 31
0.0
  0
LINE
  8
0
 62
     0
 10
255.028
 20
74.355
 30
0.0
 11
255.028
 21
60.3539
 31
0.0
  0
LINE
  8
0
 62
     0
 10
255.028
 20
60.3539
 30
0.0
 11
241.028
 21
60.3539
 31
0.0
  0
LINE
  8
0
 62
     0
 10
241.028
 20
60.3539
 30
0.0
 11
241.028
 21
74.355
 31
0.0
  0
LINE
  8
0
 62
     0
 10
221.978
 20
74.355
 30
0.0
 11
235.979
 21
74.355
 31
0.0
  0
LINE
  8
0
 62
     0
 10
235.979
 20
74.355
 30
0.0
 11
235.979
 21
60.3539
 31
0.0
  0
LINE
  8
0
 62
     0
 10
235.979
 20
60.3539
 30
0.0
 11
221.978
 21
60.3539
 31
0.0
  0
LINE
  8
0
 62
     0
 10
221.978
 20
60.3539
 30
0.0
 11
221.978
 21
74.355
 31
0.0
  0
LINE
  8
0
 62
     0
 10
202.928
 20
74.355
 30
0.0
 11
216.929
 21
74.355
 31
0.0
  0
LINE
  8
0
 62
     0
 10
216.929
 20
74.355
 30
0.0
 11
216.929
 21
60.3539
 31
0.0
  0
LINE
  8
0
 62
     0
 10
216.929
 20
60.3539
 30
0.0
 11
202.928
 21
60.3539
 31
0.0
  0
LINE
  8
0
 62
     0
 10
202.928
 20
60.3539
 30
0.0
 11
202.928
 21
74.355
 31
0.0
  0
LINE
  8
0
 62
     0
 10
183.878
 20
74.355
 30
0.0
 11
197.879
 21
74.355
 31
0.0
  0
LINE
  8
0
 62
     0
 10
197.879
 20
74.355
 30
0.0
 11
197.879
 21
60.3539
 31
0.0
  0
LINE
  8
0
 62
     0
 10
197.879
 20
60.3539
 30
0.0
 11
183.878
 21
60.3539
 31
0.0
  0
LINE
  8
0
 62
     0
 10
183.878
 20
60.3539
 30
0.0
 11
183.878
 21
74.355
 31
0.0
  0
LINE
  8
0
 62
     0
 10
164.828
 20
74.355
 30
0.0
 11
178.829
 21
74.355
 31
0.0
  0
LINE
  8
0
 62
     0
 10
178.829
 20
74.355
 30
0.0
 11
178.829
 21
60.3539
 31
0.0
  0
LINE
  8
0
 62
     0
 10
178.829
 20
60.3539
 30
0.0
 11
164.828
 21
60.3539
 31
0.0
  0
LINE
  8
0
 62
     0
 10
164.828
 20
60.3539
 30
0.0
 11
164.828
 21
74.355
 31
0.0
  0
LINE
  8
0
 62
     0
 10
145.778
 20
74.355
 30
0.0
 11
159.779
 21
74.355
 31
0.0
  0
LINE
  8
0
 62
     0
 10
159.779
 20
74.355
 30
0.0
 11
159.779
 21
60.3539
 31
0.0
  0
LINE
  8
0
 62
     0
 10
159.779
 20
60.3539
 30
0.0
 11
145.778
 21
60.3539
 31
0.0
  0
LINE
  8
0
 62
     0
 10
145.778
 20
60.3539
 30
0.0
 11
145.778
 21
74.355
 31
0.0
  0
LINE
  8
0
 62
     0
 10
126.728
 20
74.355
 30
0.0
 11
140.729
 21
74.355
 31
0.0
  0
LINE
  8
0
 62
     0
 10
140.729
 20
74.355
 30
0.0
 11
140.729
 21
60.3539
 31
0.0
  0
LINE
  8
0
 62
     0
 10
140.729
 20
60.3539
 30
0.0
 11
126.728
 21
60.3539
 31
0.0
  0
LINE
  8
0
 62
     0
 10
126.728
 20
60.3539
 30
0.0
 11
126.728
 21
74.355
 31
0.0
  0
LINE
  8
0
 62
     0
 10
107.678
 20
74.355
 30
0.0
 11
121.679
 21
74.355
 31
0.0
  0
LINE
  8
0
 62
     0
 10
121.679
 20
74.355
 30
0.0
 11
121.679
 21
60.3539
 31
0.0
  0
LINE
  8
0
 62
     0
 10
121.679
 20
60.3539
 30
0.0
 11
107.678
 21
60.3539
 31
0.0
  0
LINE
  8
0
 62
     0
 10
107.678
 20
60.3539
 30
0.0
 11
107.678
 21
74.355
 31
0.0
  0
LINE
  8
0
 62
     0
 10
88.6284
 20
74.355
 30
0.0
 11
102.629
 21
74.355
 31
0.0
  0
LINE
  8
0
 62
     0
 10
102.629
 20
74.355
 30
0.0
 11
102.629
 21
60.3539
 31
0.0
  0
LINE
  8
0
 62
     0
 10
102.629
 20
60.3539
 30
0.0
 11
88.6284
 21
60.3539
 31
0.0
  0
LINE
  8
0
 62
     0
 10
88.6284
 20
60.3539
 30
0.0
 11
88.6284
 21
74.355
 31
0.0
  0
LINE
  8
0
 62
     0
 10
69.5784
 20
74.355
 30
0.0
 11
83.5794
 21
74.355
 31
0.0
  0
LINE
  8
0
 62
     0
 10
83.5794
 20
74.355
 30
0.0
 11
83.5794
 21
60.3539
 31
0.0
  0
LINE
  8
0
 62
     0
 10
83.5794
 20
60.3539
 30
0.0
 11
69.5784
 21
60.3539
 31
0.0
  0
LINE
  8
0
 62
     0
 10
69.5784
 20
60.3539
 30
0.0
 11
69.5784
 21
74.355
 31
0.0
  0
LINE
  8
0
 62
     0
 10
50.5284
 20
74.355
 30
0.0
 11
64.5294
 21
74.355
 31
0.0
  0
LINE
  8
0
 62
     0
 10
64.5294
 20
74.355
 30
0.0
 11
64.5294
 21
60.3539
 31
0.0
  0
LINE
  8
0
 62
     0
 10
64.5294
 20
60.3539
 30
0.0
 11
50.5284
 21
60.3539
 31
0.0
  0
LINE
  8
0
 62
     0
 10
50.5284
 20
60.3539
 30
0.0
 11
50.5284
 21
74.355
 31
0.0
  0
LINE
  8
0
 62
     0
 10
31.4785
 20
74.355
 30
0.0
 11
45.4794
 21
74.355
 31
0.0
  0
LINE
  8
0
 62
     0
 10
45.4794
 20
74.355
 30
0.0
 11
45.4794
 21
60.3539
 31
0.0
  0
LINE
  8
0
 62
     0
 10
45.4794
 20
60.3539
 30
0.0
 11
31.4785
 21
60.3539
 31
0.0
  0
LINE
  8
0
 62
     0
 10
31.4785
 20
60.3539
 30
0.0
 11
31.4785
 21
74.355
 31
0.0
  0
LINE
  8
0
 62
     0
 10
7.66604
 20
74.355
 30
0.0
 11
21.6655
 21
74.355
 31
0.0
  0
LINE
  8
0
 62
     0
 10
21.6655
 20
74.355
 30
0.0
 11
21.6655
 21
60.3539
 31
0.0
  0
LINE
  8
0
 62
     0
 10
21.6655
 20
60.3539
 30
0.0
 11
7.66604
 21
60.3539
 31
0.0
  0
LINE
  8
0
 62
     0
 10
7.66604
 20
60.3539
 30
0.0
 11
7.66604
 21
74.355
 31
0.0
  0
LINE
  8
0
 62
     0
 10
260.078
 20
93.405
 30
0.0
 11
260.078
 21
88.7042
 31
0.0
  0
LINE
  8
0
 62
     0
 10
260.078
 20
88.7042
 30
0.0
 11
258.554
 21
88.7042
 31
0.0
  0
LINE
  8
0
 62
     0
 10
258.554
 20
88.7042
 30
0.0
 11
258.554
 21
91.9346
 31
0.0
  0
LINE
  8
0
 62
     0
 10
258.554
 20
91.9346
 30
0.0
 11
256.829
 21
91.9346
 31
0.0
  0
LINE
  8
0
 62
     0
 10
256.829
 20
91.9346
 30
0.0
 11
256.829
 21
92.855
 31
0.0
  0
LINE
  8
0
 62
     0
 10
256.829
 20
92.855
 30
0.0
 11
253.527
 21
92.855
 31
0.0
  0
LINE
  8
0
 62
     0
 10
253.527
 20
92.855
 30
0.0
 11
253.527
 21
91.9346
 31
0.0
  0
LINE
  8
0
 62
     0
 10
253.527
 20
91.9346
 30
0.0
 11
251.803
 21
91.9346
 31
0.0
  0
LINE
  8
0
 62
     0
 10
251.803
 20
91.9346
 30
0.0
 11
251.803
 21
88.7042
 31
0.0
  0
LINE
  8
0
 62
     0
 10
251.803
 20
88.7042
 30
0.0
 11
250.98
 21
88.7042
 31
0.0
  0
LINE
  8
0
 62
     0
 10
250.98
 20
88.7042
 30
0.0
 11
250.98
 21
85.9042
 31
0.0
  0
LINE
  8
0
 62
     0
 10
250.98
 20
85.9042
 30
0.0
 11
251.803
 21
85.9042
 31
0.0
  0
LINE
  8
0
 62
     0
 10
251.803
 20
85.9042
 30
0.0
 11
251.803
 21
79.6339
 31
0.0
  0
LINE
  8
0
 62
     0
 10
251.803
 20
79.6339
 30
0.0
 11
253.527
 21
79.6339
 31
0.0
  0
LINE
  8
0
 62
     0
 10
253.527
 20
79.6339
 30
0.0
 11
253.527
 21
78.6543
 31
0.0
  0
LINE
  8
0
 62
     0
 10
253.527
 20
78.6543
 30
0.0
 11
256.829
 21
78.6543
 31
0.0
  0
LINE
  8
0
 62
     0
 10
256.829
 20
78.6543
 30
0.0
 11
256.829
 21
79.6339
 31
0.0
  0
LINE
  8
0
 62
     0
 10
256.829
 20
79.6339
 30
0.0
 11
258.554
 21
79.6339
 31
0.0
  0
LINE
  8
0
 62
     0
 10
258.554
 20
79.6339
 30
0.0
 11
258.554
 21
84.1043
 31
0.0
  0
LINE
  8
0
 62
     0
 10
258.554
 20
84.1043
 30
0.0
 11
260.078
 21
84.1043
 31
0.0
  0
LINE
  8
0
 62
     0
 10
260.078
 20
84.1043
 30
0.0
 11
260.078
 21
79.4039
 31
0.0
  0
LINE
  8
0
 62
     0
 10
260.078
 20
79.4039
 30
0.0
 11
274.079
 21
79.4039
 31
0.0
  0
LINE
  8
0
 62
     0
 10
274.079
 20
79.4039
 30
0.0
 11
274.079
 21
84.1043
 31
0.0
  0
LINE
  8
0
 62
     0
 10
274.079
 20
84.1043
 30
0.0
 11
275.603
 21
84.1043
 31
0.0
  0
LINE
  8
0
 62
     0
 10
275.603
 20
84.1043
 30
0.0
 11
275.603
 21
79.6339
 31
0.0
  0
LINE
  8
0
 62
     0
 10
275.603
 20
79.6339
 30
0.0
 11
277.329
 21
79.6339
 31
0.0
  0
LINE
  8
0
 62
     0
 10
277.329
 20
79.6339
 30
0.0
 11
277.329
 21
78.6543
 31
0.0
  0
LINE
  8
0
 62
     0
 10
277.329
 20
78.6543
 30
0.0
 11
280.629
 21
78.6543
 31
0.0
  0
LINE
  8
0
 62
     0
 10
280.629
 20
78.6543
 30
0.0
 11
280.629
 21
79.6339
 31
0.0
  0
LINE
  8
0
 62
     0
 10
280.629
 20
79.6339
 30
0.0
 11
282.355
 21
79.6339
 31
0.0
  0
LINE
  8
0
 62
     0
 10
282.355
 20
79.6339
 30
0.0
 11
282.355
 21
85.9042
 31
0.0
  0
LINE
  8
0
 62
     0
 10
282.355
 20
85.9042
 30
0.0
 11
283.179
 21
85.9042
 31
0.0
  0
LINE
  8
0
 62
     0
 10
283.179
 20
85.9042
 30
0.0
 11
283.179
 21
88.7042
 31
0.0
  0
LINE
  8
0
 62
     0
 10
283.179
 20
88.7042
 30
0.0
 11
282.355
 21
88.7042
 31
0.0
  0
LINE
  8
0
 62
     0
 10
282.355
 20
88.7042
 30
0.0
 11
282.355
 21
91.9346
 31
0.0
  0
LINE
  8
0
 62
     0
 10
282.355
 20
91.9346
 30
0.0
 11
280.629
 21
91.9346
 31
0.0
  0
LINE
  8
0
 62
     0
 10
280.629
 20
91.9346
 30
0.0
 11
280.629
 21
92.855
 31
0.0
  0
LINE
  8
0
 62
     0
 10
280.629
 20
92.855
 30
0.0
 11
277.329
 21
92.855
 31
0.0
  0
LINE
  8
0
 62
     0
 10
277.329
 20
92.855
 30
0.0
 11
277.329
 21
91.9346
 31
0.0
  0
LINE
  8
0
 62
     0
 10
277.329
 20
91.9346
 30
0.0
 11
275.603
 21
91.9346
 31
0.0
  0
LINE
  8
0
 62
     0
 10
275.603
 20
91.9346
 30
0.0
 11
275.603
 21
88.7042
 31
0.0
  0
LINE
  8
0
 62
     0
 10
275.603
 20
88.7042
 30
0.0
 11
274.079
 21
88.7042
 31
0.0
  0
LINE
  8
0
 62
     0
 10
274.079
 20
88.7042
 30
0.0
 11
274.079
 21
93.405
 31
0.0
  0
LINE
  8
0
 62
     0
 10
274.079
 20
93.405
 30
0.0
 11
260.078
 21
93.405
 31
0.0
  0
LINE
  8
0
 62
     0
 10
412.478
 20
93.405
 30
0.0
 11
426.48
 21
93.405
 31
0.0
  0
LINE
  8
0
 62
     0
 10
426.48
 20
93.405
 30
0.0
 11
426.48
 21
79.4039
 31
0.0
  0
LINE
  8
0
 62
     0
 10
426.48
 20
79.4039
 30
0.0
 11
412.478
 21
79.4039
 31
0.0
  0
LINE
  8
0
 62
     0
 10
412.478
 20
79.4039
 30
0.0
 11
412.478
 21
93.405
 31
0.0
  0
LINE
  8
0
 62
     0
 10
393.428
 20
93.405
 30
0.0
 11
407.43
 21
93.405
 31
0.0
  0
LINE
  8
0
 62
     0
 10
407.43
 20
93.405
 30
0.0
 11
407.43
 21
79.4039
 31
0.0
  0
LINE
  8
0
 62
     0
 10
407.43
 20
79.4039
 30
0.0
 11
393.428
 21
79.4039
 31
0.0
  0
LINE
  8
0
 62
     0
 10
393.428
 20
79.4039
 30
0.0
 11
393.428
 21
93.405
 31
0.0
  0
LINE
  8
0
 62
     0
 10
374.378
 20
93.405
 30
0.0
 11
388.38
 21
93.405
 31
0.0
  0
LINE
  8
0
 62
     0
 10
388.38
 20
93.405
 30
0.0
 11
388.38
 21
79.4039
 31
0.0
  0
LINE
  8
0
 62
     0
 10
388.38
 20
79.4039
 30
0.0
 11
374.378
 21
79.4039
 31
0.0
  0
LINE
  8
0
 62
     0
 10
374.378
 20
79.4039
 30
0.0
 11
374.378
 21
93.405
 31
0.0
  0
LINE
  8
0
 62
     0
 10
355.328
 20
93.405
 30
0.0
 11
369.33
 21
93.405
 31
0.0
  0
LINE
  8
0
 62
     0
 10
369.33
 20
93.405
 30
0.0
 11
369.33
 21
79.4039
 31
0.0
  0
LINE
  8
0
 62
     0
 10
369.33
 20
79.4039
 30
0.0
 11
355.328
 21
79.4039
 31
0.0
  0
LINE
  8
0
 62
     0
 10
355.328
 20
79.4039
 30
0.0
 11
355.328
 21
93.405
 31
0.0
  0
LINE
  8
0
 62
     0
 10
331.516
 20
93.405
 30
0.0
 11
345.515
 21
93.405
 31
0.0
  0
LINE
  8
0
 62
     0
 10
345.515
 20
93.405
 30
0.0
 11
345.515
 21
79.4039
 31
0.0
  0
LINE
  8
0
 62
     0
 10
345.515
 20
79.4039
 30
0.0
 11
331.516
 21
79.4039
 31
0.0
  0
LINE
  8
0
 62
     0
 10
331.516
 20
79.4039
 30
0.0
 11
331.516
 21
93.405
 31
0.0
  0
LINE
  8
0
 62
     0
 10
312.466
 20
93.405
 30
0.0
 11
326.465
 21
93.405
 31
0.0
  0
LINE
  8
0
 62
     0
 10
326.465
 20
93.405
 30
0.0
 11
326.465
 21
79.4039
 31
0.0
  0
LINE
  8
0
 62
     0
 10
326.465
 20
79.4039
 30
0.0
 11
312.466
 21
79.4039
 31
0.0
  0
LINE
  8
0
 62
     0
 10
312.466
 20
79.4039
 30
0.0
 11
312.466
 21
93.405
 31
0.0
  0
LINE
  8
0
 62
     0
 10
293.416
 20
93.405
 30
0.0
 11
307.415
 21
93.405
 31
0.0
  0
LINE
  8
0
 62
     0
 10
307.415
 20
93.405
 30
0.0
 11
307.415
 21
79.4039
 31
0.0
  0
LINE
  8
0
 62
     0
 10
307.415
 20
79.4039
 30
0.0
 11
293.416
 21
79.4039
 31
0.0
  0
LINE
  8
0
 62
     0
 10
293.416
 20
79.4039
 30
0.0
 11
293.416
 21
93.405
 31
0.0
  0
LINE
  8
0
 62
     0
 10
231.503
 20
93.405
 30
0.0
 11
245.504
 21
93.405
 31
0.0
  0
LINE
  8
0
 62
     0
 10
245.504
 20
93.405
 30
0.0
 11
245.504
 21
79.4039
 31
0.0
  0
LINE
  8
0
 62
     0
 10
245.504
 20
79.4039
 30
0.0
 11
231.503
 21
79.4039
 31
0.0
  0
LINE
  8
0
 62
     0
 10
231.503
 20
79.4039
 30
0.0
 11
231.503
 21
93.405
 31
0.0
  0
LINE
  8
0
 62
     0
 10
212.453
 20
93.405
 30
0.0
 11
226.454
 21
93.405
 31
0.0
  0
LINE
  8
0
 62
     0
 10
226.454
 20
93.405
 30
0.0
 11
226.454
 21
79.4039
 31
0.0
  0
LINE
  8
0
 62
     0
 10
226.454
 20
79.4039
 30
0.0
 11
212.453
 21
79.4039
 31
0.0
  0
LINE
  8
0
 62
     0
 10
212.453
 20
79.4039
 30
0.0
 11
212.453
 21
93.405
 31
0.0
  0
LINE
  8
0
 62
     0
 10
193.403
 20
93.405
 30
0.0
 11
207.404
 21
93.405
 31
0.0
  0
LINE
  8
0
 62
     0
 10
207.404
 20
93.405
 30
0.0
 11
207.404
 21
79.4039
 31
0.0
  0
LINE
  8
0
 62
     0
 10
207.404
 20
79.4039
 30
0.0
 11
193.403
 21
79.4039
 31
0.0
  0
LINE
  8
0
 62
     0
 10
193.403
 20
79.4039
 30
0.0
 11
193.403
 21
93.405
 31
0.0
  0
LINE
  8
0
 62
     0
 10
174.353
 20
93.405
 30
0.0
 11
188.354
 21
93.405
 31
0.0
  0
LINE
  8
0
 62
     0
 10
188.354
 20
93.405
 30
0.0
 11
188.354
 21
79.4039
 31
0.0
  0
LINE
  8
0
 62
     0
 10
188.354
 20
79.4039
 30
0.0
 11
174.353
 21
79.4039
 31
0.0
  0
LINE
  8
0
 62
     0
 10
174.353
 20
79.4039
 30
0.0
 11
174.353
 21
93.405
 31
0.0
  0
LINE
  8
0
 62
     0
 10
155.303
 20
93.405
 30
0.0
 11
169.304
 21
93.405
 31
0.0
  0
LINE
  8
0
 62
     0
 10
169.304
 20
93.405
 30
0.0
 11
169.304
 21
79.4039
 31
0.0
  0
LINE
  8
0
 62
     0
 10
169.304
 20
79.4039
 30
0.0
 11
155.303
 21
79.4039
 31
0.0
  0
LINE
  8
0
 62
     0
 10
155.303
 20
79.4039
 30
0.0
 11
155.303
 21
93.405
 31
0.0
  0
LINE
  8
0
 62
     0
 10
136.253
 20
93.405
 30
0.0
 11
150.254
 21
93.405
 31
0.0
  0
LINE
  8
0
 62
     0
 10
150.254
 20
93.405
 30
0.0
 11
150.254
 21
79.4039
 31
0.0
  0
LINE
  8
0
 62
     0
 10
150.254
 20
79.4039
 30
0.0
 11
136.253
 21
79.4039
 31
0.0
  0
LINE
  8
0
 62
     0
 10
136.253
 20
79.4039
 30
0.0
 11
136.253
 21
93.405
 31
0.0
  0
LINE
  8
0
 62
     0
 10
117.203
 20
93.405
 30
0.0
 11
131.204
 21
93.405
 31
0.0
  0
LINE
  8
0
 62
     0
 10
131.204
 20
93.405
 30
0.0
 11
131.204
 21
79.4039
 31
0.0
  0
LINE
  8
0
 62
     0
 10
131.204
 20
79.4039
 30
0.0
 11
117.203
 21
79.4039
 31
0.0
  0
LINE
  8
0
 62
     0
 10
117.203
 20
79.4039
 30
0.0
 11
117.203
 21
93.405
 31
0.0
  0
LINE
  8
0
 62
     0
 10
98.1534
 20
93.405
 30
0.0
 11
112.153
 21
93.405
 31
0.0
  0
LINE
  8
0
 62
     0
 10
112.153
 20
93.405
 30
0.0
 11
112.153
 21
79.4039
 31
0.0
  0
LINE
  8
0
 62
     0
 10
112.153
 20
79.4039
 30
0.0
 11
98.1534
 21
79.4039
 31
0.0
  0
LINE
  8
0
 62
     0
 10
98.1534
 20
79.4039
 30
0.0
 11
98.1534
 21
93.405
 31
0.0
  0
LINE
  8
0
 62
     0
 10
79.1034
 20
93.405
 30
0.0
 11
93.1044
 21
93.405
 31
0.0
  0
LINE
  8
0
 62
     0
 10
93.1044
 20
93.405
 30
0.0
 11
93.1044
 21
79.4039
 31
0.0
  0
LINE
  8
0
 62
     0
 10
93.1044
 20
79.4039
 30
0.0
 11
79.1034
 21
79.4039
 31
0.0
  0
LINE
  8
0
 62
     0
 10
79.1034
 20
79.4039
 30
0.0
 11
79.1034
 21
93.405
 31
0.0
  0
LINE
  8
0
 62
     0
 10
60.0534
 20
93.405
 30
0.0
 11
74.0544
 21
93.405
 31
0.0
  0
LINE
  8
0
 62
     0
 10
74.0544
 20
93.405
 30
0.0
 11
74.0544
 21
79.4039
 31
0.0
  0
LINE
  8
0
 62
     0
 10
74.0544
 20
79.4039
 30
0.0
 11
60.0534
 21
79.4039
 31
0.0
  0
LINE
  8
0
 62
     0
 10
60.0534
 20
79.4039
 30
0.0
 11
60.0534
 21
93.405
 31
0.0
  0
LINE
  8
0
 62
     0
 10
41.0034
 20
93.405
 30
0.0
 11
55.0044
 21
93.405
 31
0.0
  0
LINE
  8
0
 62
     0
 10
55.0044
 20
93.405
 30
0.0
 11
55.0044
 21
79.4039
 31
0.0
  0
LINE
  8
0
 62
     0
 10
55.0044
 20
79.4039
 30
0.0
 11
41.0034
 21
79.4039
 31
0.0
  0
LINE
  8
0
 62
     0
 10
41.0034
 20
79.4039
 30
0.0
 11
41.0034
 21
93.405
 31
0.0
  0
LINE
  8
0
 62
     0
 10
21.9535
 20
93.405
 30
0.0
 11
35.9544
 21
93.405
 31
0.0
  0
LINE
  8
0
 62
     0
 10
35.9544
 20
93.405
 30
0.0
 11
35.9544
 21
79.4039
 31
0.0
  0
LINE
  8
0
 62
     0
 10
35.9544
 20
79.4039
 30
0.0
 11
21.9535
 21
79.4039
 31
0.0
  0
LINE
  8
0
 62
     0
 10
21.9535
 20
79.4039
 30
0.0
 11
21.9535
 21
93.405
 31
0.0
  0
LINE
  8
0
 62
     0
 10
2.90353
 20
93.405
 30
0.0
 11
16.9044
 21
93.405
 31
0.0
  0
LINE
  8
0
 62
     0
 10
16.9044
 20
93.405
 30
0.0
 11
16.9044
 21
79.4039
 31
0.0
  0
LINE
  8
0
 62
     0
 10
16.9044
 20
79.4039
 30
0.0
 11
2.90353
 21
79.4039
 31
0.0
  0
LINE
  8
0
 62
     0
 10
2.90353
 20
79.4039
 30
0.0
 11
2.90353
 21
93.405
 31
0.0
  0
LINE
  8
0
 62
     0
 10
331.516
 20
121.98
 30
0.0
 11
345.515
 21
121.98
 31
0.0
  0
LINE
  8
0
 62
     0
 10
345.515
 20
121.98
 30
0.0
 11
345.515
 21
107.979
 31
0.0
  0
LINE
  8
0
 62
     0
 10
345.515
 20
107.979
 30
0.0
 11
331.516
 21
107.979
 31
0.0
  0
LINE
  8
0
 62
     0
 10
331.516
 20
107.979
 30
0.0
 11
331.516
 21
121.98
 31
0.0
  0
LINE
  8
0
 62
     0
 10
312.466
 20
121.98
 30
0.0
 11
326.465
 21
121.98
 31
0.0
  0
LINE
  8
0
 62
     0
 10
326.465
 20
121.98
 30
0.0
 11
326.465
 21
107.979
 31
0.0
  0
LINE
  8
0
 62
     0
 10
326.465
 20
107.979
 30
0.0
 11
312.466
 21
107.979
 31
0.0
  0
LINE
  8
0
 62
     0
 10
312.466
 20
107.979
 30
0.0
 11
312.466
 21
121.98
 31
0.0
  0
LINE
  8
0
 62
     0
 10
293.416
 20
121.98
 30
0.0
 11
307.415
 21
121.98
 31
0.0
  0
LINE
  8
0
 62
     0
 10
307.415
 20
121.98
 30
0.0
 11
307.415
 21
107.979
 31
0.0
  0
LINE
  8
0
 62
     0
 10
307.415
 20
107.979
 30
0.0
 11
293.416
 21
107.979
 31
0.0
  0
LINE
  8
0
 62
     0
 10
293.416
 20
107.979
 30
0.0
 11
293.416
 21
121.98
 31
0.0
  0
LINE
  8
0
 62
     0
 10
269.603
 20
121.98
 30
0.0
 11
283.604
 21
121.98
 31
0.0
  0
LINE
  8
0
 62
     0
 10
283.604
 20
121.98
 30
0.0
 11
283.604
 21
107.979
 31
0.0
  0
LINE
  8
0
 62
     0
 10
283.604
 20
107.979
 30
0.0
 11
269.603
 21
107.979
 31
0.0
  0
LINE
  8
0
 62
     0
 10
269.603
 20
107.979
 30
0.0
 11
269.603
 21
121.98
 31
0.0
  0
LINE
  8
0
 62
     0
 10
250.553
 20
121.98
 30
0.0
 11
264.554
 21
121.98
 31
0.0
  0
LINE
  8
0
 62
     0
 10
264.554
 20
121.98
 30
0.0
 11
264.554
 21
107.979
 31
0.0
  0
LINE
  8
0
 62
     0
 10
264.554
 20
107.979
 30
0.0
 11
250.553
 21
107.979
 31
0.0
  0
LINE
  8
0
 62
     0
 10
250.553
 20
107.979
 30
0.0
 11
250.553
 21
121.98
 31
0.0
  0
LINE
  8
0
 62
     0
 10
231.503
 20
121.98
 30
0.0
 11
245.504
 21
121.98
 31
0.0
  0
LINE
  8
0
 62
     0
 10
245.504
 20
121.98
 30
0.0
 11
245.504
 21
107.979
 31
0.0
  0
LINE
  8
0
 62
     0
 10
245.504
 20
107.979
 30
0.0
 11
231.503
 21
107.979
 31
0.0
  0
LINE
  8
0
 62
     0
 10
231.503
 20
107.979
 30
0.0
 11
231.503
 21
121.98
 31
0.0
  0
LINE
  8
0
 62
     0
 10
212.453
 20
121.98
 30
0.0
 11
226.454
 21
121.98
 31
0.0
  0
LINE
  8
0
 62
     0
 10
226.454
 20
121.98
 30
0.0
 11
226.454
 21
107.979
 31
0.0
  0
LINE
  8
0
 62
     0
 10
226.454
 20
107.979
 30
0.0
 11
212.453
 21
107.979
 31
0.0
  0
LINE
  8
0
 62
     0
 10
212.453
 20
107.979
 30
0.0
 11
212.453
 21
121.98
 31
0.0
  0
LINE
  8
0
 62
     0
 10
183.878
 20
121.98
 30
0.0
 11
197.879
 21
121.98
 31
0.0
  0
LINE
  8
0
 62
     0
 10
197.879
 20
121.98
 30
0.0
 11
197.879
 21
107.979
 31
0.0
  0
LINE
  8
0
 62
     0
 10
197.879
 20
107.979
 30
0.0
 11
183.878
 21
107.979
 31
0.0
  0
LINE
  8
0
 62
     0
 10
183.878
 20
107.979
 30
0.0
 11
183.878
 21
121.98
 31
0.0
  0
LINE
  8
0
 62
     0
 10
164.828
 20
121.98
 30
0.0
 11
178.829
 21
121.98
 31
0.0
  0
LINE
  8
0
 62
     0
 10
178.829
 20
121.98
 30
0.0
 11
178.829
 21
107.979
 31
0.0
  0
LINE
  8
0
 62
     0
 10
178.829
 20
107.979
 30
0.0
 11
164.828
 21
107.979
 31
0.0
  0
LINE
  8
0
 62
     0
 10
164.828
 20
107.979
 30
0.0
 11
164.828
 21
121.98
 31
0.0
  0
LINE
  8
0
 62
     0
 10
145.778
 20
121.98
 30
0.0
 11
159.779
 21
121.98
 31
0.0
  0
LINE
  8
0
 62
     0
 10
159.779
 20
121.98
 30
0.0
 11
159.779
 21
107.979
 31
0.0
  0
LINE
  8
0
 62
     0
 10
159.779
 20
107.979
 30
0.0
 11
145.778
 21
107.979
 31
0.0
  0
LINE
  8
0
 62
     0
 10
145.778
 20
107.979
 30
0.0
 11
145.778
 21
121.98
 31
0.0
  0
LINE
  8
0
 62
     0
 10
126.728
 20
121.98
 30
0.0
 11
140.729
 21
121.98
 31
0.0
  0
LINE
  8
0
 62
     0
 10
140.729
 20
121.98
 30
0.0
 11
140.729
 21
107.979
 31
0.0
  0
LINE
  8
0
 62
     0
 10
140.729
 20
107.979
 30
0.0
 11
126.728
 21
107.979
 31
0.0
  0
LINE
  8
0
 62
     0
 10
126.728
 20
107.979
 30
0.0
 11
126.728
 21
121.98
 31
0.0
  0
LINE
  8
0
 62
     0
 10
98.1534
 20
121.98
 30
0.0
 11
112.153
 21
121.98
 31
0.0
  0
LINE
  8
0
 62
     0
 10
112.153
 20
121.98
 30
0.0
 11
112.153
 21
107.979
 31
0.0
  0
LINE
  8
0
 62
     0
 10
112.153
 20
107.979
 30
0.0
 11
98.1534
 21
107.979
 31
0.0
  0
LINE
  8
0
 62
     0
 10
98.1534
 20
107.979
 30
0.0
 11
98.1534
 21
121.98
 31
0.0
  0
LINE
  8
0
 62
     0
 10
79.1034
 20
121.98
 30
0.0
 11
93.1044
 21
121.98
 31
0.0
  0
LINE
  8
0
 62
     0
 10
93.1044
 20
121.98
 30
0.0
 11
93.1044
 21
107.979
 31
0.0
  0
LINE
  8
0
 62
     0
 10
93.1044
 20
107.979
 30
0.0
 11
79.1034
 21
107.979
 31
0.0
  0
LINE
  8
0
 62
     0
 10
79.1034
 20
107.979
 30
0.0
 11
79.1034
 21
121.98
 31
0.0
  0
LINE
  8
0
 62
     0
 10
60.0534
 20
121.98
 30
0.0
 11
74.0544
 21
121.98
 31
0.0
  0
LINE
  8
0
 62
     0
 10
74.0544
 20
121.98
 30
0.0
 11
74.0544
 21
107.979
 31
0.0
  0
LINE
  8
0
 62
     0
 10
74.0544
 20
107.979
 30
0.0
 11
60.0534
 21
107.979
 31
0.0
  0
LINE
  8
0
 62
     0
 10
60.0534
 20
107.979
 30
0.0
 11
60.0534
 21
121.98
 31
0.0
  0
LINE
  8
0
 62
     0
 10
41.0034
 20
121.98
 30
0.0
 11
55.0044
 21
121.98
 31
0.0
  0
LINE
  8
0
 62
     0
 10
55.0044
 20
121.98
 30
0.0
 11
55.0044
 21
107.979
 31
0.0
  0
LINE
  8
0
 62
     0
 10
55.0044
 20
107.979
 30
0.0
 11
41.0034
 21
107.979
 31
0.0
  0
LINE
  8
0
 62
     0
 10
41.0034
 20
107.979
 30
0.0
 11
41.0034
 21
121.98
 31
0.0
  0
LINE
  8
0
 62
     0
 10
2.90353
 20
121.98
 30
0.0
 11
16.9044
 21
121.98
 31
0.0
  0
LINE
  8
0
 62
     0
 10
16.9044
 20
121.98
 30
0.0
 11
16.9044
 21
107.979
 31
0.0
  0
LINE
  8
0
 62
     0
 10
16.9044
 20
107.979
 30
0.0
 11
2.90353
 21
107.979
 31
0.0
  0
LINE
  8
0
 62
     0
 10
2.90353
 20
107.979
 30
0.0
 11
2.90353
 21
121.98
 31
0.0
  0
ENDSEC
  0
EOF
